<?xml version="1.0" encoding="UTF-8" standalone="no"?>
<!-- Created with Inkscape (http://www.inkscape.org/) -->

<svg
   version="1.1"
   id="svg2"
   width="1920"
   height="700"
   viewBox="0 0 1920 700"
   xmlns:xlink="http://www.w3.org/1999/xlink"
   xmlns="http://www.w3.org/2000/svg"
   xmlns:svg="http://www.w3.org/2000/svg">
  <defs
     id="defs6">
    <linearGradient
       id="linearGradient12685">
      <stop
         style="stop-color:#54c1ff;stop-opacity:1"
         offset="0"
         id="stop12681" />
      <stop
         style="stop-color:#73fcea;stop-opacity:1"
         offset="1"
         id="stop12683" />
    </linearGradient>
    <linearGradient
       xlink:href="#linearGradient12685"
       id="linearGradient12687"
       x1="63.183086"
       y1="31.290802"
       x2="63.345886"
       y2="67.68222"
       gradientUnits="userSpaceOnUse"
       gradientTransform="matrix(1.5648597,0,0,1.5648552,-34.093611,5.5522271)" />
  </defs>
  <g
     id="g8">
    <rect
       style="fill:#022d3c;fill-rule:evenodd;stroke-width:0;stroke-linejoin:round;paint-order:markers fill stroke"
       id="rect849"
       width="1920"
       height="700"
       x="0"
       y="7.3975907e-06" />
    <g
       id="layer1"
       transform="matrix(4.1252882,0,0,4.1252882,689.72068,-24.447888)">
      <ellipse
         style="fill:#022b3a;fill-opacity:1;stroke:#73fcea;stroke-width:2.54122;stroke-miterlimit:4;stroke-dasharray:none;stroke-opacity:1"
         id="path846"
         cx="65.517685"
         cy="58.552197"
         rx="51.355392"
         ry="51.35524" />
      <path
         id="path2259"
         style="fill:#54c1ff;fill-opacity:1;stroke:none;stroke-width:1.10923"
         d="m 54.276732,22.641537 c -10.46645,4.398886 -17.25797,14.62671 -17.274703,26.015166 10e-5,15.748549 12.766844,28.625641 28.51544,28.76191 15.74879,0.136346 28.515816,-12.520063 28.51587,-28.268806 -0.02057,-0.414256 -0.05017,-0.828092 -0.0888,-1.241213 H 93.511488 88.165147 67.783378 v 6.425554 H 87.778607 C 85.565401,64.630729 76.399199,72.286531 65.422315,72.191558 52.791811,72.082159 42.552901,61.754474 42.553038,49.124011 42.582599,40.008175 48.023372,31.827343 56.400122,28.303332 Z" />
      <path
         id="rect8176-0-2"
         style="fill:url(#linearGradient12687);fill-opacity:1;fill-rule:nonzero;stroke:none;stroke-width:11.8933;stroke-miterlimit:4;stroke-dasharray:none;stroke-opacity:1"
         d="m 61.855824,47.908395 v 6.425516 40.128891 h 5.927585 V 54.333911 H 92.976561 V 47.908395 H 67.783409 Z" />
    </g>
  </g>
</svg>
