<svg viewBox="0 0 1080 1080" fill="none" xmlns="http://www.w3.org/2000/svg">      <defs>  <filter id="filter" x="-20%" y="-20%" width="140%" height="140%" filterUnits="objectBoundingBox" primitiveUnits="userSpaceOnUse" color-interpolation-filters="linearRGB">    <feMorphology operator="dilate" radius="20 20" in="SourceAlpha" result="morphology"/>    <feFlood flood-color="#ffffff" flood-opacity="1" result="flood"/>    <feComposite in="flood" in2="morphology" operator="in" result="composite"/>    <feMerge result="merge">          <feMergeNode in="composite" result="mergeNode"/>      <feMergeNode in="SourceGraphic" result="mergeNode1"/>      </feMerge>  </filter></defs>      <g id="notion-avatar" filter="url(#filter)">        <g id="notion-avatar-face" fill="#ffffff">      <!--?xml version="1.0" encoding="UTF-8"?-->    <title>Face/ 9</title>    <g id="Face/-9" stroke="none" stroke-width="1" fill-rule="evenodd" stroke-linecap="round" stroke-linejoin="round">        <path d="M532,379 C664.54834,379 772,486.45166 772,619 C772,751.54834 704.54834,919 592,919 C506.683174,919 378.324367,822.776611 321.205121,718.475443 C318.188736,718.821948 315.115161,719 312,719 C267.81722,719 232,683.18278 232,639 C232,599.134956 261.158843,566.080325 299.312086,560.00055 C325.599297,455.979213 419.809919,379 532,379 Z M295.858895,624.545187 L304.141105,655.454813" id="Path" stroke="#000000" stroke-width="24"/>    </g>    </g><g id="notion-avatar-nose">      <!--?xml version="1.0" encoding="UTF-8"?-->    <title>Nose/ 9</title>    <g id="Nose/-9" stroke="none" stroke-width="1" fill="none" fill-rule="evenodd" stroke-linecap="round" stroke-linejoin="round">        <path d="M631,694.380659 C663.848549,704.811956 684.630284,697.576454 693.345205,672.674154 C706.417587,635.320703 637.033407,606.392531 660.161467,579" id="Path" stroke="#000000" stroke-width="16"/>    </g>    </g><g id="notion-avatar-mouth">      <g id="Mouth/ 13"><g id="Group"><path id="Path" d="M528 765C528 765 599.931 769.393 623.066 764.87C646.202 760.346 687 744 687 744" stroke="black" stroke-width="16" stroke-linecap="round" stroke-linejoin="round"/><path id="Path_2" d="M668 756C668 756 668 785.043 638.943 793.34C609.886 801.638 555 768.447 555 768.447" stroke="black" stroke-width="16" stroke-linecap="round" stroke-linejoin="round"/><path id="Path_3" d="M505.348 782.386C505.348 782.386 499.053 772.522 503.446 759.4C507.839 746.278 519.439 740.299 519.439 740.299" stroke="black" stroke-width="6" stroke-linecap="round" stroke-linejoin="round"/><path id="Path_4" d="M711.499 747.668C711.499 747.668 714.478 743.128 712.342 737.053C710.205 730.977 704.647 728.182 704.647 728.182" stroke="black" stroke-width="6" stroke-linecap="round" stroke-linejoin="round"/></g></g>    </g><g id="notion-avatar-eyes">      <!--?xml version="1.0" encoding="UTF-8"?-->    <title>Eyes/ 10</title>    <g id="Eyes/-10" stroke="none" stroke-width="1" fill="none" fill-rule="evenodd">        <g id="Group" transform="translate(520.000000, 512.000000)">            <g transform="translate(140.000000, 0.000000)">                <circle id="Oval" fill="#000000" cx="52" cy="28" r="24"/>                <path d="M1,16 C24.2727273,8 41.7272727,4 53.3636364,4 C65,4 79.5454545,8 97,16" id="Path" stroke="#000000" stroke-width="12" stroke-linecap="round" stroke-linejoin="round" transform="translate(49.000000, 10.000000) rotate(-4.000000) translate(-49.000000, -10.000000) "/>            </g>            <g>                <circle id="Oval" fill="#000000" transform="translate(46.000000, 28.000000) scale(-1, 1) translate(-46.000000, -28.000000) " cx="46" cy="28" r="24"/>                <path d="M1,16 C24.2727273,8 41.7272727,4 53.3636364,4 C65,4 79.5454545,8 97,16" id="Path" stroke="#000000" stroke-width="12" stroke-linecap="round" stroke-linejoin="round" transform="translate(49.000000, 10.000000) scale(-1, 1) rotate(-4.000000) translate(-49.000000, -10.000000) "/>            </g>        </g>    </g>    </g><g id="notion-avatar-eyebrows">      <g id="Eyebrows/ 13"><g id="Group"><path id="Path" fill-rule="evenodd" clip-rule="evenodd" d="M662.391 482.335C665.391 477.335 722.391 459.335 742.391 462.335C762.391 465.335 791.391 491.335 791.391 491.335C791.391 491.335 764.391 480.335 739.391 480.335C714.391 480.335 679.391 498.335 679.391 498.335C679.391 498.335 659.391 487.335 662.391 482.335Z" fill="black" stroke="black" stroke-width="4" stroke-linecap="round" stroke-linejoin="round"/><path id="Path_2" fill-rule="evenodd" clip-rule="evenodd" d="M615 482.335C612 477.335 555 459.335 535 462.335C515 465.335 486 491.335 486 491.335C486 491.335 513 480.335 538 480.335C563 480.335 598 498.335 598 498.335C598 498.335 618 487.335 615 482.335Z" fill="black" stroke="black" stroke-width="4" stroke-linecap="round" stroke-linejoin="round"/></g></g>    </g><g id="notion-avatar-glasses">      <!--?xml version="1.0" encoding="UTF-8"?-->    <title>Glasses/ 0</title>    <g id="Glasses/-0" stroke="none" stroke-width="1" fill="none" fill-rule="evenodd"/>    </g><g id="notion-avatar-hair">      <!--?xml version="1.0" encoding="UTF-8"?-->    <title>Hairstyle/ 18</title>    <g id="Hairstyle/-18" stroke="none" stroke-width="1" fill="none" fill-rule="evenodd" stroke-linecap="round" stroke-linejoin="round">        <path d="M761,317 C805,388 810,450 809.87628,559 C809.820256,606.166783 801.152835,693.83345 783.874017,822 L683.874017,822 C720.956593,800.210827 746.623259,765.877494 760.874017,719 C782.250154,648.68376 783.874017,605 771.874017,552 C763.874017,516.666667 680.53461,482.720366 649,454 C627.976927,434.85309 609.643593,413.519756 594,390 C562,440 525.333333,478 484,504 C422,543 382.003665,540.91532 304,565 C252.666667,579 226.874017,595.666667 226.874017,639 C226.874017,682.333333 252.540684,711 303.874017,725 C313.306229,745.813537 324.306229,763.14687 336.874017,777 C345.12749,786.097578 363.460823,801.097578 391.874017,822 L202.874017,822 C155.937523,605.42859 180.063506,437.761923 227,347 C273.467129,257.145696 375,186 511,186 C647,186 717,246 761,317 Z" id="Path" stroke="#000000" stroke-width="12" fill="#000000"/>    </g>    </g><g id="notion-avatar-accessories">      <!--?xml version="1.0" encoding="UTF-8"?-->    <title>Accessories/ 0</title>    <g id="Accessories/-0" stroke="none" stroke-width="1" fill="none" fill-rule="evenodd"/>    </g><g id="notion-avatar-details">      <!--?xml version="1.0" encoding="UTF-8"?-->    <title>Details/ 0</title>    <g id="Details/-0" stroke="none" stroke-width="1" fill="none" fill-rule="evenodd"/>    </g><g id="notion-avatar-beard">      <!--?xml version="1.0" encoding="UTF-8"?-->    <title>Beard/ 0</title>    <g id="Beard/-0" stroke="none" stroke-width="1" fill="none" fill-rule="evenodd"/>    </g>      </g>      </svg>