<svg viewBox="0 0 1080 1080" fill="none" xmlns="http://www.w3.org/2000/svg">      <defs>  <filter id="filter" x="-20%" y="-20%" width="140%" height="140%" filterUnits="objectBoundingBox" primitiveUnits="userSpaceOnUse" color-interpolation-filters="linearRGB">    <feMorphology operator="dilate" radius="20 20" in="SourceAlpha" result="morphology"/>    <feFlood flood-color="#ffffff" flood-opacity="1" result="flood"/>    <feComposite in="flood" in2="morphology" operator="in" result="composite"/>    <feMerge result="merge">          <feMergeNode in="composite" result="mergeNode"/>      <feMergeNode in="SourceGraphic" result="mergeNode1"/>      </feMerge>  </filter></defs>      <g id="notion-avatar" filter="url(#filter)">        <g id="notion-avatar-face" fill="#ffffff">      <!--?xml version="1.0" encoding="UTF-8"?-->    <title>Face/ 2</title>    <g id="Face/-2" stroke="none" stroke-width="1" fill-rule="evenodd" stroke-linecap="round" stroke-linejoin="round">        <path d="M532,379 C664.54834,379 772,486.45166 772,619 C772,751.54834 664.54834,899 532,899 C432.699202,899 347.483933,816.242653 310.982017,718.993409 C267.268677,718.448846 232,682.843144 232,639 C232,599.134956 261.158843,566.080325 299.312086,560.00055 C325.599297,455.979213 419.809919,379 532,379 Z M295.858895,624.545187 L304.141105,655.454813" id="Path" stroke="#000000" stroke-width="24"/>    </g>    </g><g id="notion-avatar-nose">      <!--?xml version="1.0" encoding="UTF-8"?-->    <title>Nose/ 3</title>    <g id="Nose/-3" stroke="none" stroke-width="1" fill="none" fill-rule="evenodd" stroke-linecap="round" stroke-linejoin="round">        <path d="M636.843465,595.910607 C654.994141,637.483681 663.279537,666.31686 661.699654,682.410144 C660.11977,698.503428 648.515798,703.474491 626.887739,697.323331" id="Line" stroke="#000000" stroke-width="16" transform="translate(644.388576, 647.892684) rotate(1.032339) translate(-644.388576, -647.892684) "/>    </g>    </g><g id="notion-avatar-mouth">      <g id="Mouth/ 18"><g id="Group"><path id="Path" fill-rule="evenodd" clip-rule="evenodd" d="M557 770.275C557 770.275 585.239 770.788 599.667 769.145C614.094 767.502 629.872 761.905 636.345 761.24C642.818 760.574 648.322 764.063 649.819 764.063C651.316 764.063 655.058 760.675 662.544 761.24C670.029 761.804 685 770.275 685 770.275C685 770.275 667.784 774.792 640.836 774.792C590.684 776.486 557 770.275 557 770.275Z" stroke="black" stroke-width="8" stroke-linecap="round" stroke-linejoin="round"/><path id="Path_2" d="M682 771C682 771 675.538 776.607 672 779C666.765 782.54 661.978 785.894 651 786C642.504 786.082 624.027 780.984 613 779C600.148 776.688 563 771 563 771" stroke="black" stroke-width="8" stroke-linecap="round" stroke-linejoin="round"/></g></g>    </g><g id="notion-avatar-eyes">      <!--?xml version="1.0" encoding="UTF-8"?-->    <title>Eyes/ 7</title>    <g id="Eyes/-7" stroke="none" stroke-width="1" fill="none" fill-rule="evenodd">        <path d="M570,516 C578.836556,516 586,526.745166 586,540 C586,553.254834 578.836556,564 570,564 C561.163444,564 554,553.254834 554,540 C554,526.745166 561.163444,516 570,516 Z M708,516 C716.836556,516 724,526.745166 724,540 C724,553.254834 716.836556,564 708,564 C699.163444,564 692,553.254834 692,540 C692,526.745166 699.163444,516 708,516 Z M568,527 C564.686292,527 562,529.686292 562,533 C562,536.313708 564.686292,539 568,539 C571.313708,539 574,536.313708 574,533 C574,529.686292 571.313708,527 568,527 Z M706,527 C702.686292,527 700,529.686292 700,533 C700,536.313708 702.686292,539 706,539 C709.313708,539 712,536.313708 712,533 C712,529.686292 709.313708,527 706,527 Z" id="Combined-Shape" fill="#000000"/>    </g>    </g><g id="notion-avatar-eyebrows">      <g id="Eyebrows/ 14"><g id="Group"><path id="Path" fill-rule="evenodd" clip-rule="evenodd" d="M662.91 475.625C666.416 470.966 683.95 466.776 703.527 471.85C723.104 476.924 790.263 498.06 790.263 498.06C790.263 498.06 759.746 491.836 734.883 489.223C710.02 486.61 669.579 489.023 669.579 489.023C669.579 489.023 659.404 480.284 662.91 475.625Z" fill="black" stroke="black" stroke-width="4" stroke-linecap="round" stroke-linejoin="round"/><path id="Path_2" fill-rule="evenodd" clip-rule="evenodd" d="M614.481 475.625C610.974 470.966 593.44 466.776 573.864 471.85C554.287 476.924 487.128 498.06 487.128 498.06C487.128 498.06 517.645 491.836 542.508 489.223C567.371 486.61 607.812 489.023 607.812 489.023C607.812 489.023 617.987 480.284 614.481 475.625Z" fill="black" stroke="black" stroke-width="4" stroke-linecap="round" stroke-linejoin="round"/></g></g>    </g><g id="notion-avatar-glasses">      <!--?xml version="1.0" encoding="UTF-8"?-->    <title>Glasses/ 2</title>    <g id="Glasses/-2" stroke="none" stroke-width="1" fill="none" fill-rule="evenodd" stroke-linecap="round" stroke-linejoin="round">        <path d="M574.189838,502.353993 C586.612079,503.247679 601.018598,506.362134 617.409394,511.697357 C622.107339,513.226543 629.521032,514.112461 639.650474,514.355109 L640.336909,514.337568 C650.115498,514.071859 657.30038,513.191789 661.891553,511.697357 C678.282349,506.362134 692.688868,503.247679 705.11111,502.353993 C722.696433,501.088862 751.030506,503.214809 790.113329,508.731836 L791.300947,508.900056 L791.300947,529.629258 C786.297933,531.828279 783.752241,534.010301 783.663873,536.175322 C781.481852,589.634841 763.639862,606 723.65829,606 C685.15235,606 666.860184,585.095985 650.56058,541.630375 C648.424017,535.932875 644.892754,533.024776 639.966791,532.906078 L639.650474,532.90229 C634.559091,532.90229 630.922389,535.811651 628.740368,541.630375 C612.440763,585.095985 594.148598,606 555.642657,606 C515.661085,606 497.819095,589.634841 495.637074,536.175322 C495.548712,534.010446 493.003357,531.828573 488.00101,529.629702 L488,530 L289,550 L293,541 L487.999,509 L488,508.900056 C527.696939,503.258104 556.426885,501.076083 574.189838,502.353993 Z M564.611618,508.971486 C532.97231,506.789465 518.789172,513.335528 512.243109,520.972603 C505.697045,528.609677 493.695928,595.161324 551.51949,598.434355 C609.343052,601.707387 614.798105,534.06473 611.525073,526.427656 C608.252042,518.790581 596.250925,511.153507 564.611618,508.971486 Z M714.580942,508.971486 C682.941634,511.153507 670.940518,518.790581 667.667486,526.427656 C664.394454,534.06473 669.849507,601.707387 727.673069,598.434355 C785.496631,595.161324 773.495514,528.609677 766.949451,520.972603 C760.403387,513.335528 746.220249,506.789465 714.580942,508.971486 Z" id="Combined-Shape" stroke="#000000" stroke-width="4" fill="#000000"/>    </g>    </g><g id="notion-avatar-hair">      <g id="Hairstyle/ 36"><path id="Path" fill-rule="evenodd" clip-rule="evenodd" d="M539.999 312C671.999 328 752.424 414.219 744.999 431C738.933 444.707 738.933 459.707 744.999 476C727.499 489.392 675.365 429.548 603.549 403.064L601.751 404.165C596.113 407.606 591.005 410.616 586.427 413.198L584.999 414C569.805 422.476 559.864 426.483 555.177 426.02L554.999 426L570.037 393.773C568 393.401 565.95 393.064 563.888 392.762L562.609 393.979C553.521 402.603 546.117 409.172 540.395 413.688L539.999 414C531.811 420.414 519.58 428.452 503.307 438.112L502.447 438.622L530.202 391.102C528.426 391.14 526.674 391.188 524.945 391.246L523.493 392.663C511.479 404.358 501.473 413.346 493.476 419.626L492.999 420C482.336 428.313 432.999 457 432.999 457L458.999 413C421.999 426 408.999 438 400.999 448C392.999 458 373.393 491.363 394.999 510L328.116 564.825H287.145C271.779 507.747 259.999 405 337.999 391C384.666 327.666 451.999 301.333 539.999 312Z" fill="black" stroke="black" stroke-width="12" stroke-linecap="round" stroke-linejoin="round"/></g>    </g><g id="notion-avatar-accessories">      <!--?xml version="1.0" encoding="UTF-8"?-->    <title>Accessories/ 0</title>    <g id="Accessories/-0" stroke="none" stroke-width="1" fill="none" fill-rule="evenodd"/>    </g><g id="notion-avatar-details">      <!--?xml version="1.0" encoding="UTF-8"?-->    <title>Details/ 0</title>    <g id="Details/-0" stroke="none" stroke-width="1" fill="none" fill-rule="evenodd"/>    </g><g id="notion-avatar-beard">      <!--?xml version="1.0" encoding="UTF-8"?-->    <title>Beard/ 0</title>    <g id="Beard/-0" stroke="none" stroke-width="1" fill="none" fill-rule="evenodd"/>    </g>      </g>      </svg>