<svg viewBox="0 0 1080 1080" fill="none" xmlns="http://www.w3.org/2000/svg">      <defs>  <filter id="filter" x="-20%" y="-20%" width="140%" height="140%" filterUnits="objectBoundingBox" primitiveUnits="userSpaceOnUse" color-interpolation-filters="linearRGB">    <feMorphology operator="dilate" radius="20 20" in="SourceAlpha" result="morphology"/>    <feFlood flood-color="#ffffff" flood-opacity="1" result="flood"/>    <feComposite in="flood" in2="morphology" operator="in" result="composite"/>    <feMerge result="merge">          <feMergeNode in="composite" result="mergeNode"/>      <feMergeNode in="SourceGraphic" result="mergeNode1"/>      </feMerge>  </filter></defs>      <g id="notion-avatar" filter="url(#filter)">        <g id="notion-avatar-face" fill="#ffffff">      <!--?xml version="1.0" encoding="UTF-8"?-->    <title>Face/ 5</title>    <g id="Face/-5" stroke="none" stroke-width="1" fill-rule="evenodd" stroke-linecap="round" stroke-linejoin="round">        <path d="M532,379 C664.54834,379 772,486.45166 772,619 C772,751.54834 704.54834,859 532,859 C405.842528,859 335.866563,801.559592 307.358668,718.866959 C265.336704,716.464588 232,681.625396 232,639 C232,599.134956 261.158843,566.080325 299.312086,560.00055 C325.599297,455.979213 419.809919,379 532,379 Z M295.858895,624.545187 L304.141105,655.454813" id="Path" stroke="#000000" stroke-width="24"/>    </g>    </g><g id="notion-avatar-nose">      <g id="Nose/ 11"><path id="Path" fill-rule="evenodd" clip-rule="evenodd" d="M648.516 601C648.516 601 664.222 603.637 672 609.977C685.06 620.622 693.906 641.256 692.774 653.58C690.065 683.076 644 684.359 644 684.359C644 684.359 700 689.489 700 653.58C700 637.222 689.433 619.065 672 608.695C663.922 603.889 648.516 601 648.516 601Z" fill="black" stroke="black" stroke-width="6" stroke-linecap="round" stroke-linejoin="round"/></g>    </g><g id="notion-avatar-mouth">      <!--?xml version="1.0" encoding="UTF-8"?-->    <title>Mouth/ 7</title>    <g id="Mouth/-7" stroke="none" stroke-width="1" fill="none" fill-rule="evenodd" stroke-linecap="round" stroke-linejoin="round">        <path d="M559.810774,753.60177 C566.691716,738.132743 579.421458,738.132743 598,753.60177 L598.555602,753.14234 C616.832552,738.13429 629.377094,738.287434 636.189226,753.60177 C643.001358,768.916106 630.593059,783.900851 598.96433,798.556005 L598,799 C565.659574,784.20354 552.929833,769.070796 559.810774,753.60177 Z" id="Path" stroke="#000000" stroke-width="16" fill="#000000"/>    </g>    </g><g id="notion-avatar-eyes">      <g id="Eyes/ 12"><g id="Group 2"><path id="Path" fill-rule="evenodd" clip-rule="evenodd" d="M534 528.156C534 528.156 562.569 554.438 586.169 549.907C609.769 545.375 599.832 520 599.832 520C599.832 520 614.738 546.282 593.622 554.438C572.506 562.595 534 528.156 534 528.156Z" fill="black" stroke="black" stroke-width="6" stroke-linecap="round" stroke-linejoin="round"/><path id="Path_2" fill-rule="evenodd" clip-rule="evenodd" d="M672 528.156C672 528.156 700.569 554.438 724.169 549.907C747.769 545.375 737.832 520 737.832 520C737.832 520 752.738 546.282 731.622 554.438C710.506 562.595 672 528.156 672 528.156Z" fill="black" stroke="black" stroke-width="6" stroke-linecap="round" stroke-linejoin="round"/></g></g>    </g><g id="notion-avatar-eyebrows">      <!--?xml version="1.0" encoding="UTF-8"?-->    <title>Eyebrows/ 0</title>    <g id="Eyebrows/-0" stroke="none" stroke-width="1" fill="none" fill-rule="evenodd" stroke-linecap="round" stroke-linejoin="round">        <g id="Group" transform="translate(525.000000, 492.000000)" stroke="#000000" stroke-width="16">            <path d="M0,16 C12.8888889,5.33333333 27.8888889,0 45,0 C62.1111111,0 77.1111111,5.33333333 90,16" id="Path"/>            <path d="M138,16 C150.888889,5.33333333 165.888889,0 183,0 C200.111111,0 215.111111,5.33333333 228,16" id="Path"/>        </g>    </g>    </g><g id="notion-avatar-glasses">      <!--?xml version="1.0" encoding="UTF-8"?-->    <title>Glasses/ 5</title>    <g id="Glasses/-5" stroke="none" stroke-width="1" fill="none" fill-rule="evenodd" stroke-linecap="round" stroke-linejoin="round">        <g id="Group" transform="translate(289.000000, 500.000000)" stroke="#000000">            <path d="M339.818182,40.2109589 C338.074175,42.9080712 336.862054,47.8943725 336.181818,55.169863 L327.454545,55.169863 C324.545455,28.1013699 305.393939,14.0922374 270,13.1424658 C240.424242,11.2429224 222.727273,23.1150685 216.909091,48.7589041 L205.272727,48.7589041 L190,33.8 L190,10.2931507 C222.484848,2.22009132 249.151515,-1.10410959 270,0.320547945 C285.225486,1.36096427 303.25963,5.13798521 324.62746,9.93254373 L332.545455,11.7178082 C336.214681,12.54746 342.032863,13.4972317 350,14.5671233 L352.073632,14.2846662 C358.984501,13.3293325 364.111473,12.4737132 367.454545,11.7178082 L376.341511,9.71531602 C397.286215,5.02415827 415.005203,1.34520038 430,0.320547945 C450.64,-1.08986301 476.9824,2.15408219 509.0272,10.0523836 L510,10.2931507 L510,33.8 L494.727273,48.7589041 L483.090909,48.7589041 C477.272727,23.1150685 459.575758,11.2429224 430,13.1424658 C394.96,14.0827397 375.8392,27.8224932 372.6376,54.361726 L372.545455,55.169863 L363.818182,55.169863 L363.730382,54.2723496 C363.036013,47.4828217 361.853158,42.7956915 360.181818,40.2109589 C358.482529,37.5830034 355.216835,35.4868176 350.384736,33.9224017 L350,33.8 C344.956128,35.3768603 341.562189,37.5138466 339.818182,40.2109589 Z" id="Path" stroke-width="4" fill="#000000"/>            <path d="M216.909091,48.4383562 C216.909091,85.4794521 234.606061,104 270,104 C305.393939,104 324.545455,87.6164384 327.454545,54.8493151" id="Path" stroke-width="6"/>            <path d="M372.545455,48.4383562 C372.545455,85.4794521 390.242424,104 425.636364,104 C461.030303,104 480.181818,87.6164384 483.090909,54.8493151" id="Path" stroke-width="6" transform="translate(427.818182, 76.219178) scale(-1, 1) translate(-427.818182, -76.219178) "/>            <polygon id="Path" stroke-width="4" fill="#000000" points="199 9 4 41 0 50 199 30"/>        </g>    </g>    </g><g id="notion-avatar-hair">      <!--?xml version="1.0" encoding="UTF-8"?-->    <title>Hairstyle/ 23</title>    <g id="Hairstyle/-23" stroke="none" stroke-width="1" fill="none" fill-rule="evenodd" stroke-linecap="round" stroke-linejoin="round">        <path d="M425,196 C310,207 195,273 147,449 C99,625 172,871 181,929 C184.992032,954.726429 206.325365,982.726429 245,1013 C245.200048,1003.91039 246.866714,996.910389 250,992 C254.482715,984.974827 271.149382,995.641493 300,1024 C300.362042,1010.9005 301.362042,1004.23383 303,1004 C312.172314,1002.69058 329.838981,1012.69058 356,1034 C355.842315,1023.20358 356.842315,1017.87025 359,1018 C367.337025,1018.50135 381.003692,1028.83469 400,1049 C410,1020.33333 416,992 418,964 C422.08731,906.777664 371.10908,800.583946 359,788 C341.351402,769.6593 325.684735,746.6593 312,719 C258.666667,709.666667 232,683 232,639 C232,573 284,566 304,566 C324,566 333.617614,574.224729 349,588 C359.254924,597.183514 366.588257,609.516847 371,625 C398.333333,577.666667 416.333333,539.333333 425,510 C433.666667,480.666667 442.666667,442.333333 452,395 C478.180222,414.443429 496.846889,427.443429 508,434 C536.004641,450.463067 558.791358,457.829448 570,463 C576.596672,466.043048 541.16552,393.430455 546,395 C551.379054,396.746345 606.281754,478.779649 611,481 C628,489 649.949411,498.072787 675,504 C691.279294,507.851839 719.279294,511.851839 759,516 C765.666667,418 747.666667,343 705,291 C641,213 540,185 425,196 Z" id="Path" stroke="#000000" stroke-width="12" fill="#000000"/>    </g>    </g><g id="notion-avatar-accessories">      <!--?xml version="1.0" encoding="UTF-8"?-->    <title>Accessories/ 0</title>    <g id="Accessories/-0" stroke="none" stroke-width="1" fill="none" fill-rule="evenodd"/>    </g><g id="notion-avatar-details">      <!--?xml version="1.0" encoding="UTF-8"?-->    <title>Details/ 0</title>    <g id="Details/-0" stroke="none" stroke-width="1" fill="none" fill-rule="evenodd"/>    </g><g id="notion-avatar-beard">      <!--?xml version="1.0" encoding="UTF-8"?-->    <title>Beard/ 0</title>    <g id="Beard/-0" stroke="none" stroke-width="1" fill="none" fill-rule="evenodd"/>    </g>      </g>      </svg>