<svg viewBox="0 0 1080 1080" fill="none" xmlns="http://www.w3.org/2000/svg">      <defs>  <filter id="filter" x="-20%" y="-20%" width="140%" height="140%" filterUnits="objectBoundingBox" primitiveUnits="userSpaceOnUse" color-interpolation-filters="linearRGB">    <feMorphology operator="dilate" radius="20 20" in="SourceAlpha" result="morphology"/>    <feFlood flood-color="#ffffff" flood-opacity="1" result="flood"/>    <feComposite in="flood" in2="morphology" operator="in" result="composite"/>    <feMerge result="merge">          <feMergeNode in="composite" result="mergeNode"/>      <feMergeNode in="SourceGraphic" result="mergeNode1"/>      </feMerge>  </filter></defs>      <g id="notion-avatar" filter="url(#filter)">        <g id="notion-avatar-face" fill="#ffffff">      <!--?xml version="1.0" encoding="UTF-8"?-->    <!-- Generator: Sketch 63.1 (92452) - https://sketch.com -->    <title>Face/ 14</title>    <desc>Created with Sketch.</desc>    <g id="Face/-14" stroke="none" stroke-width="1" fill-rule="evenodd" stroke-linecap="round" stroke-linejoin="round">        <path d="M532,379 C664.54834,379 772,486.45166 772,619 C772,642.160109 783.234546,656.244677 777.453024,678.979248 C763.583554,733.517917 758.701879,941.343666 598,909 C539.618945,897.249936 461,880 433,858 C405,836 342.170039,758.772836 320.189513,718.584987 C317.498129,718.859681 314.765451,719 312,719 C267.81722,719 232,683.18278 232,639 C232,599.134956 261.158843,566.080325 299.312086,560.00055 C325.599297,455.979213 419.809919,379 532,379 Z M295.858895,624.545187 L304.141105,655.454813" id="Path" stroke="#000000" stroke-width="24"/>    </g>    </g><g id="notion-avatar-nose">      <!--?xml version="1.0" encoding="UTF-8"?-->    <title>Nose/ 4</title>    <g id="Nose/-4" stroke="none" stroke-width="1" fill="none" fill-rule="evenodd" stroke-linecap="round" stroke-linejoin="round">        <path d="M636.843426,596.000252 C661.659687,637.453214 673.277876,666.226337 671.697992,682.319621 C670.118108,698.412905 655.181344,703.444023 626.8877,697.412976" id="Line" stroke="#000000" stroke-width="16" transform="translate(649.363766, 647.939652) rotate(1.032339) translate(-649.363766, -647.939652) "/>    </g>    </g><g id="notion-avatar-mouth">      <!--?xml version="1.0" encoding="UTF-8"?-->    <title>Mouth/ 0</title>    <g id="Mouth/-0" stroke="none" stroke-width="1" fill="none" fill-rule="evenodd" stroke-linecap="round" stroke-linejoin="round">        <path d="M549,759 C576.33038,765.666667 599.663714,769 619,769 C638.336286,769 655.002953,765.666667 669,759" id="Path" stroke="#000000" stroke-width="16"/>    </g>    </g><g id="notion-avatar-eyes">      <!--?xml version="1.0" encoding="UTF-8"?-->    <title>Eyes/ 10</title>    <g id="Eyes/-10" stroke="none" stroke-width="1" fill="none" fill-rule="evenodd">        <g id="Group" transform="translate(520.000000, 512.000000)">            <g transform="translate(140.000000, 0.000000)">                <circle id="Oval" fill="#000000" cx="52" cy="28" r="24"/>                <path d="M1,16 C24.2727273,8 41.7272727,4 53.3636364,4 C65,4 79.5454545,8 97,16" id="Path" stroke="#000000" stroke-width="12" stroke-linecap="round" stroke-linejoin="round" transform="translate(49.000000, 10.000000) rotate(-4.000000) translate(-49.000000, -10.000000) "/>            </g>            <g>                <circle id="Oval" fill="#000000" transform="translate(46.000000, 28.000000) scale(-1, 1) translate(-46.000000, -28.000000) " cx="46" cy="28" r="24"/>                <path d="M1,16 C24.2727273,8 41.7272727,4 53.3636364,4 C65,4 79.5454545,8 97,16" id="Path" stroke="#000000" stroke-width="12" stroke-linecap="round" stroke-linejoin="round" transform="translate(49.000000, 10.000000) scale(-1, 1) rotate(-4.000000) translate(-49.000000, -10.000000) "/>            </g>        </g>    </g>    </g><g id="notion-avatar-eyebrows">      <!--?xml version="1.0" encoding="UTF-8"?-->    <title>Eyebrows/ 10</title>    <g id="Eyebrows/-10" stroke="none" stroke-width="1" fill="none" fill-rule="evenodd" stroke-linecap="round" stroke-linejoin="round">        <path d="M757,487.2 C757,494.4 735.666667,494.4 717,494.4 C698.333333,494.4 661,498 661,494.4 C661,490.8 694.986112,480 717,480 L720.27013,480.0009 C740.767534,480.018 757,480.36 757,487.2 Z M561,480 C583.013888,480 617,490.8 617,494.4 C617,498 579.666667,494.4 561,494.4 C542.333333,494.4 521,494.4 521,487.2 C521,480.36 537.232466,480.018 557.72987,480.0009 Z" id="Combined-Shape" stroke="#000000" stroke-width="16" fill="#000000"/>    </g>    </g><g id="notion-avatar-glasses">      <!--?xml version="1.0" encoding="UTF-8"?-->    <title>Glasses/ 2</title>    <g id="Glasses/-2" stroke="none" stroke-width="1" fill="none" fill-rule="evenodd" stroke-linecap="round" stroke-linejoin="round">        <path d="M574.189838,502.353993 C586.612079,503.247679 601.018598,506.362134 617.409394,511.697357 C622.107339,513.226543 629.521032,514.112461 639.650474,514.355109 L640.336909,514.337568 C650.115498,514.071859 657.30038,513.191789 661.891553,511.697357 C678.282349,506.362134 692.688868,503.247679 705.11111,502.353993 C722.696433,501.088862 751.030506,503.214809 790.113329,508.731836 L791.300947,508.900056 L791.300947,529.629258 C786.297933,531.828279 783.752241,534.010301 783.663873,536.175322 C781.481852,589.634841 763.639862,606 723.65829,606 C685.15235,606 666.860184,585.095985 650.56058,541.630375 C648.424017,535.932875 644.892754,533.024776 639.966791,532.906078 L639.650474,532.90229 C634.559091,532.90229 630.922389,535.811651 628.740368,541.630375 C612.440763,585.095985 594.148598,606 555.642657,606 C515.661085,606 497.819095,589.634841 495.637074,536.175322 C495.548712,534.010446 493.003357,531.828573 488.00101,529.629702 L488,530 L289,550 L293,541 L487.999,509 L488,508.900056 C527.696939,503.258104 556.426885,501.076083 574.189838,502.353993 Z M564.611618,508.971486 C532.97231,506.789465 518.789172,513.335528 512.243109,520.972603 C505.697045,528.609677 493.695928,595.161324 551.51949,598.434355 C609.343052,601.707387 614.798105,534.06473 611.525073,526.427656 C608.252042,518.790581 596.250925,511.153507 564.611618,508.971486 Z M714.580942,508.971486 C682.941634,511.153507 670.940518,518.790581 667.667486,526.427656 C664.394454,534.06473 669.849507,601.707387 727.673069,598.434355 C785.496631,595.161324 773.495514,528.609677 766.949451,520.972603 C760.403387,513.335528 746.220249,506.789465 714.580942,508.971486 Z" id="Combined-Shape" stroke="#000000" stroke-width="4" fill="#000000"/>    </g>    </g><g id="notion-avatar-hair">      <!--?xml version="1.0" encoding="UTF-8"?-->    <title>Hairstyle/ 6</title>    <g id="Hairstyle/-6" stroke="none" stroke-width="1" fill="none" fill-rule="evenodd" stroke-linecap="round" stroke-linejoin="round">        <path d="M279,719 L312,727 L361,805 C345.104968,795.793015 330.104968,783.793015 316,769 C301.895032,754.206985 289.561699,737.540318 279,719 Z M343,303 C367,222.333333 442.666667,202.333333 570,243 C761,304 782,471 782,496 C782,512.666667 778.333333,533.666667 771,559 L769.377742,556.788495 C742.968282,520.931086 720.842368,498.001587 703,488 C652.173973,459.509334 588.817434,464 549,464 C509.182566,464 428.104379,430.95793 412,428 C409.688334,427.575411 401.590927,431.429106 429,448 L430.116018,448.665115 C436.887544,452.645909 447.182205,457.757538 461,464 C447.596463,464.038164 432.312171,461.806007 415.147123,457.303529 L412.503541,456.598811 C395.711977,452.076418 384.642719,448.384272 379.295767,445.522372 L380.06813,448.7074 C388.26572,482.685415 392.364515,505.362636 392.364515,516.739062 C392.364515,528.232771 383.924355,572.72458 367.044035,650.214489 L366,655 C350.666667,619.666667 338.333333,596 329,584 C315,566 300.202254,555.429256 288,559 L287.245493,559.229979 C278.745889,561.917334 258.53666,571.367129 244,589 C238.749387,595.368958 233.08272,607.368958 227,625 L226.065502,623.594497 C212.50066,603.100798 205.145493,587.902633 204,578 C200.118123,544.441696 214.597053,517.355586 214,510 C210.524124,467.177849 188,403 244,358 L246.2348,356.214 C282.6516,327.271333 314.906667,309.533333 343,303 Z" id="Shape" stroke="#000000" stroke-width="12" fill="#000000"/>    </g>    </g><g id="notion-avatar-accessories">      <!--?xml version="1.0" encoding="UTF-8"?-->    <title>Accessories/ 0</title>    <g id="Accessories/-0" stroke="none" stroke-width="1" fill="none" fill-rule="evenodd"/>    </g><g id="notion-avatar-details">      <!--?xml version="1.0" encoding="UTF-8"?-->    <title>Details/ 0</title>    <g id="Details/-0" stroke="none" stroke-width="1" fill="none" fill-rule="evenodd"/>    </g><g id="notion-avatar-beard">      <!--?xml version="1.0" encoding="UTF-8"?-->    <title>Beard/ 0</title>    <g id="Beard/-0" stroke="none" stroke-width="1" fill="none" fill-rule="evenodd"/>    </g>      </g>      </svg>