<svg viewBox="0 0 1080 1080" fill="none" xmlns="http://www.w3.org/2000/svg">      <defs>  <filter id="filter" x="-20%" y="-20%" width="140%" height="140%" filterUnits="objectBoundingBox" primitiveUnits="userSpaceOnUse" color-interpolation-filters="linearRGB">    <feMorphology operator="dilate" radius="20 20" in="SourceAlpha" result="morphology"/>    <feFlood flood-color="#ffffff" flood-opacity="1" result="flood"/>    <feComposite in="flood" in2="morphology" operator="in" result="composite"/>    <feMerge result="merge">          <feMergeNode in="composite" result="mergeNode"/>      <feMergeNode in="SourceGraphic" result="mergeNode1"/>      </feMerge>  </filter></defs>      <g id="notion-avatar" filter="url(#filter)">        <g id="notion-avatar-face" fill="#ffffff">      <!--?xml version="1.0" encoding="UTF-8"?-->    <!-- Generator: Sketch 63.1 (92452) - https://sketch.com -->    <title>Face/ 15</title>    <desc>Created with Sketch.</desc>    <g id="Face/-15" stroke="none" stroke-width="1" fill-rule="evenodd" stroke-linecap="round" stroke-linejoin="round">        <path d="M532,379 C664.54834,379 772,486.45166 772,619 C772,642.160109 793.234546,666.244677 787.453024,688.979248 C773.583554,743.517917 768.701879,951.343666 608,919 C549.618945,907.249936 481,900 453,878 C425,856 342.170039,758.772836 320.189513,718.584987 C317.498129,718.859681 314.765451,719 312,719 C267.81722,719 232,683.18278 232,639 C232,599.134956 261.158843,566.080325 299.312086,560.00055 C325.599297,455.979213 419.809919,379 532,379 Z M295.858895,624.545187 L304.141105,655.454813" id="Path" stroke="#000000" stroke-width="24"/>    </g>    </g><g id="notion-avatar-nose">      <!--?xml version="1.0" encoding="UTF-8"?-->    <title>Nose/ 4</title>    <g id="Nose/-4" stroke="none" stroke-width="1" fill="none" fill-rule="evenodd" stroke-linecap="round" stroke-linejoin="round">        <path d="M636.843426,596.000252 C661.659687,637.453214 673.277876,666.226337 671.697992,682.319621 C670.118108,698.412905 655.181344,703.444023 626.8877,697.412976" id="Line" stroke="#000000" stroke-width="16" transform="translate(649.363766, 647.939652) rotate(1.032339) translate(-649.363766, -647.939652) "/>    </g>    </g><g id="notion-avatar-mouth">      <g id="Mouth/ 13"><g id="Group"><path id="Path" d="M528 765C528 765 599.931 769.393 623.066 764.87C646.202 760.346 687 744 687 744" stroke="black" stroke-width="16" stroke-linecap="round" stroke-linejoin="round"/><path id="Path_2" d="M668 756C668 756 668 785.043 638.943 793.34C609.886 801.638 555 768.447 555 768.447" stroke="black" stroke-width="16" stroke-linecap="round" stroke-linejoin="round"/><path id="Path_3" d="M505.348 782.386C505.348 782.386 499.053 772.522 503.446 759.4C507.839 746.278 519.439 740.299 519.439 740.299" stroke="black" stroke-width="6" stroke-linecap="round" stroke-linejoin="round"/><path id="Path_4" d="M711.499 747.668C711.499 747.668 714.478 743.128 712.342 737.053C710.205 730.977 704.647 728.182 704.647 728.182" stroke="black" stroke-width="6" stroke-linecap="round" stroke-linejoin="round"/></g></g>    </g><g id="notion-avatar-eyes">      <!--?xml version="1.0" encoding="UTF-8"?-->    <title>Eyes/ 2</title>    <g id="Eyes/-2" stroke="none" stroke-width="1" fill="none" fill-rule="evenodd">        <path d="M570,516 C587.673112,516 602,530.326888 602,548 C602,565.673112 587.673112,580 570,580 C552.326888,580 538,565.673112 538,548 C538,530.326888 552.326888,516 570,516 Z M708,516 C725.673112,516 740,530.326888 740,548 C740,565.673112 725.673112,580 708,580 C690.326888,580 676,565.673112 676,548 C676,530.326888 690.326888,516 708,516 Z" id="Combined-Shape" fill="#000000"/>    </g>    </g><g id="notion-avatar-eyebrows">      <g id="Eyebrows/ 12"><g id="Group"><path id="Path" fill-rule="evenodd" clip-rule="evenodd" d="M681 505.316C681 505.316 698.641 492.863 706.392 490.578C714.144 488.294 738 489.316 738 489.316L755 494.913C755 494.913 730.25 494.897 716.549 497.08C702.848 499.263 681 505.316 681 505.316Z" fill="black" stroke="black" stroke-width="8" stroke-linecap="round" stroke-linejoin="round"/><path id="Path_2" fill-rule="evenodd" clip-rule="evenodd" d="M597 505.316C597 505.316 579.359 492.863 571.608 490.578C563.856 488.294 540 489.316 540 489.316L523 494.913C523 494.913 547.75 494.897 561.451 497.08C575.152 499.263 597 505.316 597 505.316Z" fill="black" stroke="black" stroke-width="8" stroke-linecap="round" stroke-linejoin="round"/></g></g>    </g><g id="notion-avatar-glasses">      <g id="Glasses/ 12"><g id="Group"><path id="Path" fill-rule="evenodd" clip-rule="evenodd" d="M805.209 500.217C805.813 491.284 798.652 484 789.699 484H455C446.163 484 439 491.163 439 500V575.76C439 580.706 441.26 585.352 445.249 588.275C465.881 603.396 532.959 650 575.94 650C627.244 650 619.761 588.343 666.321 588.343C712.881 588.343 690.97 650 747.116 640.514C791.7 632.982 802.608 538.717 805.209 500.217Z" fill="white" stroke="black" stroke-width="12" stroke-linecap="round" stroke-linejoin="round"/><g id="Group_2"><path id="Mask" fill-rule="evenodd" clip-rule="evenodd" d="M783.642 509.995C783.893 505.509 780.3 501.847 775.807 501.847L465 501.847C460.582 501.847 457 505.428 457 509.847V561.349C457 563.759 458.047 566.008 459.946 567.493C474.566 578.927 540.245 628.47 580.546 628.47C611.607 628.47 603.397 573.489 662.087 568.491C720.777 563.492 704.644 623.472 742.954 620.14C775.033 617.35 782.169 536.288 783.642 509.995Z" fill="black"/><mask id="mask0_0_1157" style="mask-type:alpha" maskUnits="userSpaceOnUse" x="457" y="501" width="327" height="128"><path id="Mask_2" fill-rule="evenodd" clip-rule="evenodd" d="M783.642 509.995C783.893 505.509 780.3 501.847 775.807 501.847L465 501.847C460.582 501.847 457 505.428 457 509.847V561.349C457 563.759 458.047 566.008 459.946 567.493C474.566 578.927 540.245 628.47 580.546 628.47C611.607 628.47 603.397 573.489 662.087 568.491C720.777 563.492 704.644 623.472 742.954 620.14C775.033 617.35 782.169 536.288 783.642 509.995Z" fill="white"/></mask><g mask="url(#mask0_0_1157)"><path id="Path_2" d="M671.808 492.742L781.264 580.828" stroke="white" stroke-width="16" stroke-linecap="round" stroke-linejoin="round"/><path id="Path_3" d="M696.436 478.979L805.892 567.065" stroke="white" stroke-width="8" stroke-linecap="round" stroke-linejoin="round"/></g></g><path id="Path_4" fill-rule="evenodd" clip-rule="evenodd" d="M439 492.036L284 523V566.875L439 552V492.036Z" fill="black" stroke="black" stroke-width="12" stroke-linecap="round" stroke-linejoin="round"/></g></g>    </g><g id="notion-avatar-hair">      <!--?xml version="1.0" encoding="UTF-8"?-->    <title>Hairstyle/ 5</title>    <g id="Hairstyle/-5" stroke="none" stroke-width="1" fill="none" fill-rule="evenodd" stroke-linecap="round" stroke-linejoin="round">        <path d="M623,264 C701.810134,298.151058 736.674249,344.123631 741,379 C743.95879,402.855244 738.292123,428.188578 724,455 C666,448.333333 620.333333,452 587,466 C520.819135,493.795963 452.819135,492.129296 383,461 C391.19759,494.978015 399,522 395,559 C392.333333,583.666667 384.333333,621.333333 371,672 C346.672242,617.194008 331.338909,585.527342 325,577 C318.661091,568.472658 305.994424,562.472658 287,559 C271.634723,501.922397 259,475 269,431 C279,387 315.912503,338.292045 358,325 C362.714614,323.511034 356.047947,314.177701 338,297 C388.266605,282.037882 424.375148,273.411755 446.325628,271.121621 C454.054785,270.315224 451.279576,260.274684 438,241 C508.793244,233.565961 570.459911,241.232628 623,264 Z" id="Path" stroke="#000000" stroke-width="12" fill="#000000"/>    </g>    </g><g id="notion-avatar-accessories">      <g id="Accessories/ 13"><g id="Group"><path id="Path" d="M848.363 445.583C849.786 445.07 851.351 445.114 852.743 445.706L850.396 451.228C852.743 445.706 852.744 445.706 852.746 445.707L852.749 445.708L852.758 445.712L852.786 445.724L852.875 445.763C852.949 445.795 853.053 445.84 853.184 445.898C853.447 446.014 853.818 446.181 854.279 446.395C855.198 446.821 856.482 447.438 857.965 448.209C860.888 449.73 864.777 451.951 868.203 454.608C871.354 457.052 875.295 460.742 876.572 465.47C877.289 468.124 877.143 471.032 875.711 473.813C874.355 476.445 872.099 478.475 869.468 480.074C863.828 483.5 856.636 484.179 849.943 483.851C843.081 483.514 835.793 482.063 829.257 480.352C822.686 478.633 816.678 476.599 812.324 475.002C810.142 474.201 808.363 473.505 807.121 473.006C806.5 472.757 806.013 472.556 805.676 472.416C805.508 472.346 805.377 472.291 805.286 472.252L805.179 472.207L805.149 472.194L805.139 472.19L805.136 472.189C805.135 472.188 805.134 472.188 807.502 466.675L805.134 472.188C802.87 471.215 801.431 468.957 801.505 466.495C801.579 464.032 803.151 461.865 805.469 461.03L848.363 445.583Z" fill="black" stroke="white" stroke-width="12" stroke-linecap="round" stroke-linejoin="round"/><path id="Path_2" d="M861.982 450.135C864.505 451.32 865.88 454.087 865.3 456.814C864.72 459.541 862.339 461.509 859.551 461.565L859.55 461.565L859.535 461.565L859.469 461.567C859.408 461.568 859.314 461.57 859.19 461.574C858.94 461.58 858.567 461.591 858.083 461.608C857.115 461.641 855.707 461.696 853.967 461.787C850.481 461.967 845.688 462.284 840.449 462.831C829.638 463.958 818.064 465.96 811.672 469.175C782.245 483.972 750.709 499.225 720.702 510.56C690.824 521.847 661.815 529.508 637.596 528.59C594.286 526.947 545.13 507.14 507.282 488.164C488.254 478.624 471.882 469.189 460.265 462.138C454.453 458.611 449.825 455.677 446.643 453.619C445.051 452.59 443.821 451.78 442.984 451.224C442.565 450.946 442.245 450.732 442.027 450.586L441.907 450.505L441.778 450.418L441.712 450.373L441.694 450.361L441.688 450.357C441.687 450.356 441.686 450.355 445.059 445.394L441.686 450.355C439.682 448.993 438.695 446.56 439.182 444.187C439.669 441.814 441.535 439.967 443.913 439.504L721.565 385.466C722.814 385.222 724.109 385.383 725.261 385.924L861.982 450.135Z" fill="black" stroke="white" stroke-width="12" stroke-linecap="round" stroke-linejoin="round"/><path id="Path_3" d="M742.711 401.355L748.62 400.311C749.129 403.193 747.485 406.021 744.729 407.005L742.711 401.355ZM742.711 401.355C748.62 400.311 748.619 400.307 748.619 400.303L748.616 400.29L748.609 400.249C748.603 400.216 748.594 400.169 748.584 400.11C748.562 399.992 748.53 399.824 748.488 399.606C748.404 399.172 748.279 398.541 748.107 397.729C747.765 396.105 747.239 393.751 746.495 390.776C745.006 384.827 742.643 376.385 739.125 366.311C732.096 346.183 720.416 319.429 701.805 293.03C664.434 240.022 599.166 188.633 488.668 195.066C378.311 201.49 322.937 256.205 295.493 309.668C281.856 336.233 275.177 362.34 271.898 381.773C270.256 391.501 269.462 399.59 269.077 405.273C268.885 408.115 268.795 410.359 268.754 411.908C268.733 412.682 268.724 413.283 268.721 413.699C268.719 413.907 268.719 414.069 268.719 414.183C268.719 414.24 268.719 414.285 268.719 414.318L268.719 414.358L268.719 414.371C268.719 414.376 268.719 414.38 274.719 414.326M742.711 401.355C744.729 407.005 744.728 407.005 744.728 407.006L744.725 407.007L744.713 407.011L744.671 407.026L744.507 407.084C744.363 407.135 744.15 407.211 743.871 407.31C743.313 407.507 742.49 407.797 741.428 408.168C739.302 408.912 736.215 409.983 732.358 411.297C724.645 413.925 713.848 417.53 701.506 421.435C676.883 429.226 645.881 438.289 620.93 443.145C596.034 447.991 557.101 452.548 524.586 455.884C508.288 457.556 493.532 458.928 482.852 459.882C477.511 460.359 473.187 460.732 470.198 460.985C468.703 461.112 467.541 461.209 466.753 461.274C466.359 461.307 466.058 461.332 465.855 461.348L465.625 461.367L465.566 461.372L465.551 461.373L465.547 461.374C465.546 461.374 465.545 461.374 465.06 455.393M274.719 414.326C270.991 419.027 270.993 419.028 270.994 419.029L270.997 419.032L271.005 419.038L271.031 419.058L271.116 419.125C271.188 419.181 271.29 419.261 271.422 419.363C271.686 419.566 272.068 419.857 272.563 420.227C273.553 420.965 274.993 422.016 276.836 423.297C280.521 425.857 285.827 429.345 292.371 433.099C305.413 440.579 323.59 449.239 343.775 453.594C363.726 457.899 394.226 459.821 419.366 460.691C432.015 461.129 443.441 461.305 451.706 461.371C455.839 461.404 459.184 461.409 461.498 461.407C462.656 461.405 463.556 461.402 464.168 461.399C464.474 461.397 464.708 461.396 464.867 461.395L465.047 461.394L465.094 461.393L465.106 461.393L465.11 461.393C465.111 461.393 465.111 461.393 465.06 455.393M274.719 414.326L270.991 419.027C269.571 417.901 268.736 416.193 268.719 414.38L274.719 414.326ZM465.06 455.393L465.545 461.374C465.401 461.385 465.256 461.392 465.111 461.393L465.06 455.393Z" fill="black" stroke="white" stroke-width="12" stroke-linecap="round" stroke-linejoin="round"/><path id="Oval" d="M467.691 222.83C459.814 223.797 452.181 223.032 446.139 220.726C440.381 218.528 434.472 214.202 433.606 207.149C432.739 200.095 437.427 194.468 442.482 190.943C447.787 187.243 455.008 184.654 462.885 183.687C470.762 182.72 478.395 183.485 484.437 185.791C490.196 187.989 496.105 192.315 496.971 199.368C497.837 206.422 493.15 212.049 488.094 215.574C482.789 219.274 475.568 221.863 467.691 222.83Z" fill="black" stroke="white" stroke-width="12" stroke-linecap="round" stroke-linejoin="round"/></g></g>    </g><g id="notion-avatar-details">      <!--?xml version="1.0" encoding="UTF-8"?-->    <title>Details/ 0</title>    <g id="Details/-0" stroke="none" stroke-width="1" fill="none" fill-rule="evenodd"/>    </g><g id="notion-avatar-beard">      <!--?xml version="1.0" encoding="UTF-8"?-->    <title>Beard/ 6</title>    <g id="Beard/-6" stroke="none" stroke-width="1" fill="none" fill-rule="evenodd" stroke-linecap="round" stroke-linejoin="round">        <path d="M671.118678,718.2216 C669.299174,707.737669 688.858843,708.193492 698.41124,710.016784 C704.779504,711.232312 724.642424,716.246366 758,725.058946 C701.292121,727.490002 672.331681,725.210887 671.118678,718.2216 Z M648.881322,718.2216 C647.668319,725.210887 618.707879,727.490002 562,725.058946 C595.357576,716.246366 615.220496,711.232312 621.58876,710.016784 C631.141157,708.193492 650.700826,707.737669 648.881322,718.2216 Z" id="Combined-Shape" stroke="#000000" stroke-width="12" fill="#000000"/>    </g>    </g>      </g>      </svg>