<svg viewBox="0 0 1080 1080" fill="none" xmlns="http://www.w3.org/2000/svg">      <defs>  <filter id="filter" x="-20%" y="-20%" width="140%" height="140%" filterUnits="objectBoundingBox" primitiveUnits="userSpaceOnUse" color-interpolation-filters="linearRGB">    <feMorphology operator="dilate" radius="20 20" in="SourceAlpha" result="morphology"/>    <feFlood flood-color="#ffffff" flood-opacity="1" result="flood"/>    <feComposite in="flood" in2="morphology" operator="in" result="composite"/>    <feMerge result="merge">          <feMergeNode in="composite" result="mergeNode"/>      <feMergeNode in="SourceGraphic" result="mergeNode1"/>      </feMerge>  </filter></defs>      <g id="notion-avatar" filter="url(#filter)">        <g id="notion-avatar-face" fill="#ffffff">      <!--?xml version="1.0" encoding="UTF-8"?-->    <title>Face/ 8</title>    <g id="Face/-8" stroke="none" stroke-width="1" fill-rule="evenodd" stroke-linecap="round" stroke-linejoin="round">        <path d="M532,379 C664.54834,379 772,486.45166 772,619 C772,751.54834 724.54834,899 592,899 C492.560218,899 373.476049,816.010833 320.189513,718.584987 C317.498129,718.859681 314.765451,719 312,719 C267.81722,719 232,683.18278 232,639 C232,599.134956 261.158843,566.080325 299.312086,560.00055 C325.599297,455.979213 419.809919,379 532,379 Z M295.858895,624.545187 L304.141105,655.454813" id="Path" stroke="#000000" stroke-width="24"/>    </g>    </g><g id="notion-avatar-nose">      <g id="Nose/ 13"><path id="Path" fill-rule="evenodd" clip-rule="evenodd" d="M644 560C644 560 665.892 613.522 673 623C676 627 693.906 641.256 692.774 653.58C690.065 683.076 644 684.359 644 684.359C644 684.359 700 689.489 700 653.58C700 637.222 687 632 674 620C666.959 613.5 644 560 644 560Z" fill="black" stroke="black" stroke-width="6" stroke-linecap="round" stroke-linejoin="round"/></g>    </g><g id="notion-avatar-mouth">      <!--?xml version="1.0" encoding="UTF-8"?-->    <title>Mouth/ 2</title>    <g id="Mouth/-2" stroke="none" stroke-width="1" fill="none" fill-rule="evenodd" stroke-linecap="round" stroke-linejoin="round">        <path d="M572,769 C585.775809,774.333333 599.109142,777 612,777 C624.890858,777 638.224191,774.333333 652,769" id="Path" stroke="#000000" stroke-width="16"/>    </g>    </g><g id="notion-avatar-eyes">      <g id="Eyes/ 13"><g id="Group 1"><g id="Group"><path id="Path" fill-rule="evenodd" clip-rule="evenodd" d="M534 524.531C534 524.531 562.569 539.132 586.169 536.615C609.769 534.097 599.832 520 599.832 520C599.832 520 614.738 534.601 593.622 539.132C572.506 543.664 534 524.531 534 524.531Z" fill="black" stroke="black" stroke-width="6" stroke-linecap="round" stroke-linejoin="round"/><path id="Path_2" d="M540 529L536 537" stroke="black" stroke-width="4" stroke-linecap="round" stroke-linejoin="round"/><path id="Path_3" d="M554 534L551 543" stroke="black" stroke-width="4" stroke-linecap="round" stroke-linejoin="round"/><path id="Path_4" d="M568 537L566 547" stroke="black" stroke-width="4" stroke-linecap="round" stroke-linejoin="round"/><path id="Path_5" d="M582 539L581 549" stroke="black" stroke-width="4" stroke-linecap="round" stroke-linejoin="round"/><path id="Path_6" d="M594 538L596 547" stroke="black" stroke-width="4" stroke-linecap="round" stroke-linejoin="round"/><path id="Path_7" d="M604 534L608 540" stroke="black" stroke-width="4" stroke-linecap="round" stroke-linejoin="round"/></g><g id="Group_2"><path id="Path_8" fill-rule="evenodd" clip-rule="evenodd" d="M672 524.531C672 524.531 700.569 539.132 724.169 536.615C747.769 534.097 737.832 520 737.832 520C737.832 520 752.738 534.601 731.622 539.132C710.506 543.664 672 524.531 672 524.531Z" fill="black" stroke="black" stroke-width="6" stroke-linecap="round" stroke-linejoin="round"/><path id="Path_9" d="M678 529L674 537" stroke="black" stroke-width="4" stroke-linecap="round" stroke-linejoin="round"/><path id="Path_10" d="M692 534L689 543" stroke="black" stroke-width="4" stroke-linecap="round" stroke-linejoin="round"/><path id="Path_11" d="M706 537L704 547" stroke="black" stroke-width="4" stroke-linecap="round" stroke-linejoin="round"/><path id="Path_12" d="M720 539L719 549" stroke="black" stroke-width="4" stroke-linecap="round" stroke-linejoin="round"/><path id="Path_13" d="M732 538L734 547" stroke="black" stroke-width="4" stroke-linecap="round" stroke-linejoin="round"/><path id="Path_14" d="M742 534L746 540" stroke="black" stroke-width="4" stroke-linecap="round" stroke-linejoin="round"/></g></g></g>    </g><g id="notion-avatar-eyebrows">      <!--?xml version="1.0" encoding="UTF-8"?-->    <title>Eyebrows/ 3</title>    <g id="Eyebrows/-3" stroke="none" stroke-width="1" fill="none" fill-rule="evenodd" stroke-linecap="round" stroke-linejoin="round">        <g id="Group" transform="translate(512.000000, 484.000000)" stroke="#000000" stroke-width="24">            <path d="M152,14.0251712 C167.712271,3.95186377 182.349308,-0.695225271 195.911111,0.0839040908 C206.159229,0.672661315 219.876442,6.74452014 237.511111,14.0251712 C241.312508,15.5946162 247.475471,17.5862258 256,20" id="Path" transform="translate(204.000000, 10.000000) scale(-1, 1) translate(-204.000000, -10.000000) "/>            <path d="M0,14.0251712 C15.7122706,3.95186377 30.3493076,-0.695225271 43.9111111,0.0839040908 C54.1592293,0.672661315 67.8764421,6.74452014 85.5111111,14.0251712 C89.3125078,15.5946162 95.4754707,17.5862258 104,20" id="Path"/>        </g>    </g>    </g><g id="notion-avatar-glasses">      <g id="Glasses/ 12"><g id="Group"><path id="Path" fill-rule="evenodd" clip-rule="evenodd" d="M805.209 500.217C805.813 491.284 798.652 484 789.699 484H455C446.163 484 439 491.163 439 500V575.76C439 580.706 441.26 585.352 445.249 588.275C465.881 603.396 532.959 650 575.94 650C627.244 650 619.761 588.343 666.321 588.343C712.881 588.343 690.97 650 747.116 640.514C791.7 632.982 802.608 538.717 805.209 500.217Z" fill="white" stroke="black" stroke-width="12" stroke-linecap="round" stroke-linejoin="round"/><g id="Group_2"><path id="Mask" fill-rule="evenodd" clip-rule="evenodd" d="M783.642 509.995C783.893 505.509 780.3 501.847 775.807 501.847L465 501.847C460.582 501.847 457 505.428 457 509.847V561.349C457 563.759 458.047 566.008 459.946 567.493C474.566 578.927 540.245 628.47 580.546 628.47C611.607 628.47 603.397 573.489 662.087 568.491C720.777 563.492 704.644 623.472 742.954 620.14C775.033 617.35 782.169 536.288 783.642 509.995Z" fill="black"/><mask id="mask0_0_1157" style="mask-type:alpha" maskUnits="userSpaceOnUse" x="457" y="501" width="327" height="128"><path id="Mask_2" fill-rule="evenodd" clip-rule="evenodd" d="M783.642 509.995C783.893 505.509 780.3 501.847 775.807 501.847L465 501.847C460.582 501.847 457 505.428 457 509.847V561.349C457 563.759 458.047 566.008 459.946 567.493C474.566 578.927 540.245 628.47 580.546 628.47C611.607 628.47 603.397 573.489 662.087 568.491C720.777 563.492 704.644 623.472 742.954 620.14C775.033 617.35 782.169 536.288 783.642 509.995Z" fill="white"/></mask><g mask="url(#mask0_0_1157)"><path id="Path_2" d="M671.808 492.742L781.264 580.828" stroke="white" stroke-width="16" stroke-linecap="round" stroke-linejoin="round"/><path id="Path_3" d="M696.436 478.979L805.892 567.065" stroke="white" stroke-width="8" stroke-linecap="round" stroke-linejoin="round"/></g></g><path id="Path_4" fill-rule="evenodd" clip-rule="evenodd" d="M439 492.036L284 523V566.875L439 552V492.036Z" fill="black" stroke="black" stroke-width="12" stroke-linecap="round" stroke-linejoin="round"/></g></g>    </g><g id="notion-avatar-hair">      <g id="Hairstyle/ 40"><path id="Path" fill-rule="evenodd" clip-rule="evenodd" d="M639 277.308C667.43 286.446 696 298 704 336C710.842 368.499 711 378 689 446C682.333 430.667 649.333 422 590 420C561.16 419.028 528.044 403.964 495 406C470.467 407.511 431.899 420.685 379.296 445.522L380.068 448.707C388.266 482.685 392.365 505.363 392.365 516.739C392.365 527.77 384.591 569.192 369.044 641.005L366 655L328.117 564.825H287.146C271.78 507.747 268.106 468.653 276.123 447.542C284.14 426.431 296.099 411.251 312 402C331 367 470.357 328.33 494.118 324.238C495.772 323.953 497.385 323.709 498.959 323.505L500.461 322.624C508.552 317.838 513.95 313.985 519.924 310.186C492.292 313.158 451.984 326.133 399.002 349.111C446.763 317.858 490.246 301.828 529.453 301.02C531.82 300.971 534.136 300.973 536.402 301.026C538.424 300.055 540.611 299.049 543 298C548.899 295.41 556.081 293.379 564.106 291.94C536.526 289.839 492.546 297.699 432.166 315.521C483.379 290.323 528.492 279.711 567.505 283.687C577.797 284.736 587.013 286.631 595.151 289.371C618.568 289.36 644.007 293.263 664.64 301.589C657.176 294.844 648.63 289.751 639 286.308C613.258 277.105 566.925 275.105 500 280.308C555.333 266.308 601.667 265.308 639 277.308Z" fill="black" stroke="black" stroke-width="12" stroke-linecap="round" stroke-linejoin="round"/></g>    </g><g id="notion-avatar-accessories">      <g id="Accessories/ 14"><g id="Group"><path id="Path" d="M287.695 658.293C276.76 647.358 276.76 629.63 287.695 618.695C298.63 607.76 316.358 607.76 327.293 618.695C337.267 628.669 338.143 644.297 329.921 655.264L362.083 687.426C366.925 692.268 366.925 700.119 362.083 704.962C357.24 709.804 349.389 709.804 344.547 704.962L306.04 666.456C299.371 666.111 292.792 663.389 287.695 658.293Z" fill="white" stroke="black" stroke-width="8" stroke-linecap="round" stroke-linejoin="round"/><rect id="Rectangle" width="8" height="16" rx="4" transform="matrix(-0.707107 0.707107 0.707107 0.707107 295.615 623.221)" fill="black"/></g></g>    </g><g id="notion-avatar-details">      <!--?xml version="1.0" encoding="UTF-8"?-->    <title>Details/ 0</title>    <g id="Details/-0" stroke="none" stroke-width="1" fill="none" fill-rule="evenodd"/>    </g><g id="notion-avatar-beard">      <g id="Beard/ 15"><g id="Group"><g id="Combined Shape"><path fill-rule="evenodd" clip-rule="evenodd" d="M369.784 644H359.784C359.784 644 341.471 799.286 411.784 857C482.098 914.714 569.784 925 615 925C660.216 925 690.216 905 707 887C723.784 869 756.082 808.293 743 804C740.172 803.072 729.363 801.658 713.81 800.202C710.947 812.016 705.396 824.233 697.53 835C696.321 836.654 695.156 838.263 694.023 839.826C675.301 865.663 665.637 879 621.229 879C574.135 879 564.884 878 525.238 840C514.752 829.95 507.447 819.544 502.766 809.407C500.067 811.055 497.593 812.617 495.291 814.07C475.74 826.412 468.584 830.929 441 814C406.784 793 369.784 644 369.784 644Z" fill="black"/><path d="M359.784 644V638C356.742 638 354.182 640.276 353.826 643.297L359.784 644ZM369.784 644L375.607 642.554C374.943 639.878 372.541 638 369.784 638V644ZM411.784 857L415.591 852.362H415.591L411.784 857ZM743 804L741.129 809.701L743 804ZM713.81 800.202L714.369 794.228C711.402 793.95 708.681 795.893 707.979 798.789L713.81 800.202ZM697.53 835L702.375 838.539L702.375 838.539L697.53 835ZM694.023 839.826L698.881 843.347H698.881L694.023 839.826ZM525.238 840L521.086 844.332H521.086L525.238 840ZM502.766 809.407L508.214 806.892C507.496 805.338 506.149 804.165 504.511 803.667C502.873 803.169 501.101 803.394 499.64 804.286L502.766 809.407ZM495.291 814.07L492.088 808.997L492.088 808.997L495.291 814.07ZM441 814L444.139 808.886L441 814ZM359.784 650H369.784V638H359.784V650ZM415.591 852.362C382.46 825.168 369.587 774.171 365.392 728.311C363.317 705.625 363.406 684.684 364.017 669.405C364.322 661.772 364.757 655.567 365.114 651.284C365.292 649.142 365.451 647.482 365.565 646.364C365.622 645.806 365.667 645.383 365.698 645.103C365.713 644.963 365.725 644.859 365.733 644.792C365.736 644.759 365.739 644.735 365.741 644.72C365.742 644.712 365.742 644.707 365.743 644.704C365.743 644.703 365.743 644.702 365.743 644.702C365.743 644.702 365.743 644.703 359.784 644C353.826 643.297 353.825 643.299 353.825 643.302C353.825 643.304 353.824 643.307 353.824 643.31C353.823 643.317 353.822 643.326 353.821 643.337C353.818 643.36 353.815 643.392 353.81 643.433C353.8 643.516 353.787 643.636 353.77 643.791C353.736 644.103 353.687 644.559 353.626 645.152C353.506 646.337 353.34 648.069 353.155 650.287C352.786 654.721 352.339 661.099 352.026 668.925C351.401 684.566 351.306 706.054 353.442 729.404C357.668 775.614 370.795 831.118 407.977 861.638L415.591 852.362ZM615 919C570.41 919 484.361 908.81 415.591 852.362L407.977 861.638C479.834 920.619 569.159 931 615 931V919ZM702.612 882.908C686.755 899.914 658.27 919 615 919V931C662.162 931 693.677 910.086 711.388 891.092L702.612 882.908ZM741.129 809.701C739.838 809.277 739.837 808.156 739.972 809.006C740.132 810.007 740.062 811.932 739.395 814.956C738.09 820.872 734.981 828.945 730.781 837.784C722.358 855.506 710.4 874.556 702.612 882.908L711.388 891.092C720.385 881.444 732.967 861.14 741.619 842.935C745.955 833.811 749.517 824.777 751.113 817.541C751.897 813.989 752.335 810.326 751.822 807.115C751.286 803.754 749.433 799.796 744.871 798.299L741.129 809.701ZM713.251 806.176C720.985 806.9 727.498 807.61 732.402 808.249C737.561 808.921 740.36 809.448 741.129 809.701L744.871 798.299C742.813 797.624 738.793 796.98 733.952 796.349C728.856 795.685 722.188 794.96 714.369 794.228L713.251 806.176ZM702.375 838.539C710.705 827.138 716.592 814.199 719.641 801.615L707.979 798.789C705.303 809.834 700.088 821.328 692.685 831.461L702.375 838.539ZM698.881 843.347C700.015 841.783 701.174 840.183 702.375 838.539L692.685 831.461C691.469 833.126 690.296 834.744 689.164 836.306L698.881 843.347ZM621.229 885C643.975 885 658.806 881.598 670.481 874.163C681.936 866.868 689.689 856.033 698.881 843.347L689.164 836.306C679.635 849.456 673.195 858.208 664.035 864.041C655.096 869.734 642.892 873 621.229 873V885ZM521.086 844.332C540.889 863.312 553.891 873.878 568.309 879.358C582.687 884.823 597.95 885 621.229 885V873C597.414 873 584.505 872.677 572.572 868.141C560.68 863.621 549.233 854.688 529.39 835.668L521.086 844.332ZM497.319 811.923C502.343 822.802 510.11 833.812 521.086 844.332L529.39 835.668C519.394 826.088 512.551 816.286 508.214 806.892L497.319 811.923ZM498.494 819.144C500.799 817.689 503.237 816.15 505.893 814.529L499.64 804.286C496.897 805.961 494.387 807.545 492.088 808.997L498.494 819.144ZM437.861 819.114C451.808 827.673 461.898 831.698 471.591 830.996C481.08 830.309 489.124 825.059 498.494 819.144L492.088 808.997C481.907 815.424 476.597 818.603 470.725 819.028C465.056 819.438 457.776 817.256 444.139 808.886L437.861 819.114ZM369.784 644C363.961 645.446 363.961 645.447 363.962 645.449C363.962 645.45 363.963 645.452 363.963 645.455C363.965 645.46 363.966 645.468 363.969 645.477C363.974 645.497 363.981 645.525 363.99 645.563C364.009 645.637 364.036 645.747 364.073 645.891C364.145 646.18 364.253 646.605 364.394 647.16C364.676 648.269 365.094 649.893 365.637 651.965C366.723 656.108 368.31 662.042 370.322 669.227C374.344 683.59 380.07 702.981 386.879 723.053C393.678 743.094 401.606 763.961 410.048 781.215C414.269 789.841 418.678 797.687 423.211 804.122C427.686 810.473 432.567 815.864 437.861 819.114L444.139 808.886C440.879 806.886 437.119 803.027 433.021 797.21C428.982 791.477 424.887 784.238 420.827 775.941C412.709 759.351 404.971 739.031 398.243 719.197C391.525 699.394 385.863 680.223 381.878 665.992C379.886 658.879 378.316 653.01 377.245 648.922C376.709 646.879 376.299 645.281 376.022 644.197C375.884 643.655 375.78 643.242 375.71 642.965C375.675 642.827 375.649 642.722 375.632 642.654C375.624 642.619 375.617 642.594 375.613 642.577C375.611 642.569 375.609 642.563 375.609 642.559C375.608 642.557 375.608 642.556 375.608 642.555C375.607 642.554 375.607 642.554 369.784 644Z" fill="black"/></g><path id="Path" fill-rule="evenodd" clip-rule="evenodd" d="M698.059 729.721C698.059 729.721 701.033 737.719 699.086 738.906C697.74 739.726 669 722.832 616 723C563 723.168 534.188 739.683 532.914 738.906C530.905 737.681 533 732 534.94 729.721C541.033 724.945 571.31 714.711 602.246 712.449C606.205 712.16 610 716.002 616 716.001C622 716 626.18 712.101 629.327 712.287C661.138 714.165 691.805 724.818 698.059 729.721Z" fill="black" stroke="black" stroke-width="12" stroke-linecap="round" stroke-linejoin="round"/><path id="Path_2" fill-rule="evenodd" clip-rule="evenodd" d="M591 867C591 867 604.444 870 616 870C627.556 870 639 867 639 867L648 890H583L591 867Z" fill="black" stroke="black" stroke-width="12" stroke-linecap="round" stroke-linejoin="round"/></g></g>    </g>      </g>      </svg>