<svg viewBox="0 0 1080 1080" fill="none" xmlns="http://www.w3.org/2000/svg">      <defs>  <filter id="filter" x="-20%" y="-20%" width="140%" height="140%" filterUnits="objectBoundingBox" primitiveUnits="userSpaceOnUse" color-interpolation-filters="linearRGB">    <feMorphology operator="dilate" radius="20 20" in="SourceAlpha" result="morphology"/>    <feFlood flood-color="#ffffff" flood-opacity="1" result="flood"/>    <feComposite in="flood" in2="morphology" operator="in" result="composite"/>    <feMerge result="merge">          <feMergeNode in="composite" result="mergeNode"/>      <feMergeNode in="SourceGraphic" result="mergeNode1"/>      </feMerge>  </filter></defs>      <g id="notion-avatar" filter="url(#filter)">        <g id="notion-avatar-face" fill="#ffffff">      <!--?xml version="1.0" encoding="UTF-8"?-->    <title>Face/ 3</title>    <g id="Face/-3" stroke="none" stroke-width="1" fill-rule="evenodd" stroke-linecap="round" stroke-linejoin="round">        <path d="M532,379 C664.54834,379 772,486.45166 772,619 C772,751.54834 704.54834,899 532,899 C402.610491,899 332.317998,816.086314 305.249034,718.717925 C264.225797,715.291578 232,680.909158 232,639 C232,599.134956 261.158843,566.080325 299.312086,560.00055 C325.599297,455.979213 419.809919,379 532,379 Z M295.858895,624.545187 L304.141105,655.454813" id="Path" stroke="#000000" stroke-width="24"/>    </g>    </g><g id="notion-avatar-nose">      <g id="Nose/ 12"><path id="Path" fill-rule="evenodd" clip-rule="evenodd" d="M648.516 575C648.516 575 659.222 580.698 667 589C673.643 596.091 676.296 606.295 680 617C683.578 627.342 695.556 636.07 695 644C692.29 682.626 644 684.16 644 684.16C644 684.16 696 684 700 643.855C701.005 633.771 688.451 626.971 684 617C679.168 606.177 677 594 669 588C660.881 581.911 648.516 575 648.516 575Z" fill="black" stroke="black" stroke-width="6" stroke-linecap="round" stroke-linejoin="round"/></g>    </g><g id="notion-avatar-mouth">      <g id="Mouth/ 14"><g id="Group"><path id="Path" fill-rule="evenodd" clip-rule="evenodd" d="M555.87 801.555C536.147 789.209 521.396 768.019 521.396 768.019C521.396 768.019 569 757.637 609 757.319C649 757 696.604 768.019 696.604 768.019C696.604 768.019 681.852 789.209 662.129 801.555C653.101 807.207 625 810 609.443 810C593.886 810 564.806 807.15 555.87 801.555Z" stroke="black" stroke-width="16" stroke-linecap="round" stroke-linejoin="round"/><path id="Path_2" d="M569.322 801C569.322 801 589.161 793 609 793C628.838 793 648.677 801 648.677 801" stroke="black" stroke-width="8" stroke-linecap="round" stroke-linejoin="round"/></g></g>    </g><g id="notion-avatar-eyes">      <g id="Eyes/ 13"><g id="Group 1"><g id="Group"><path id="Path" fill-rule="evenodd" clip-rule="evenodd" d="M534 524.531C534 524.531 562.569 539.132 586.169 536.615C609.769 534.097 599.832 520 599.832 520C599.832 520 614.738 534.601 593.622 539.132C572.506 543.664 534 524.531 534 524.531Z" fill="black" stroke="black" stroke-width="6" stroke-linecap="round" stroke-linejoin="round"/><path id="Path_2" d="M540 529L536 537" stroke="black" stroke-width="4" stroke-linecap="round" stroke-linejoin="round"/><path id="Path_3" d="M554 534L551 543" stroke="black" stroke-width="4" stroke-linecap="round" stroke-linejoin="round"/><path id="Path_4" d="M568 537L566 547" stroke="black" stroke-width="4" stroke-linecap="round" stroke-linejoin="round"/><path id="Path_5" d="M582 539L581 549" stroke="black" stroke-width="4" stroke-linecap="round" stroke-linejoin="round"/><path id="Path_6" d="M594 538L596 547" stroke="black" stroke-width="4" stroke-linecap="round" stroke-linejoin="round"/><path id="Path_7" d="M604 534L608 540" stroke="black" stroke-width="4" stroke-linecap="round" stroke-linejoin="round"/></g><g id="Group_2"><path id="Path_8" fill-rule="evenodd" clip-rule="evenodd" d="M672 524.531C672 524.531 700.569 539.132 724.169 536.615C747.769 534.097 737.832 520 737.832 520C737.832 520 752.738 534.601 731.622 539.132C710.506 543.664 672 524.531 672 524.531Z" fill="black" stroke="black" stroke-width="6" stroke-linecap="round" stroke-linejoin="round"/><path id="Path_9" d="M678 529L674 537" stroke="black" stroke-width="4" stroke-linecap="round" stroke-linejoin="round"/><path id="Path_10" d="M692 534L689 543" stroke="black" stroke-width="4" stroke-linecap="round" stroke-linejoin="round"/><path id="Path_11" d="M706 537L704 547" stroke="black" stroke-width="4" stroke-linecap="round" stroke-linejoin="round"/><path id="Path_12" d="M720 539L719 549" stroke="black" stroke-width="4" stroke-linecap="round" stroke-linejoin="round"/><path id="Path_13" d="M732 538L734 547" stroke="black" stroke-width="4" stroke-linecap="round" stroke-linejoin="round"/><path id="Path_14" d="M742 534L746 540" stroke="black" stroke-width="4" stroke-linecap="round" stroke-linejoin="round"/></g></g></g>    </g><g id="notion-avatar-eyebrows">      <!--?xml version="1.0" encoding="UTF-8"?-->    <title>Eyebrows/ 5</title>    <g id="Eyebrows/-5" stroke="none" stroke-width="1" fill="none" fill-rule="evenodd" stroke-linecap="round" stroke-linejoin="round">        <g id="Group" transform="translate(517.000000, 471.000000)" stroke="#000000" stroke-width="24">            <line x1="1" y1="27.4172651" x2="76.8548788" y2="2" id="Path" transform="translate(38.927439, 14.708633) rotate(2.524843) translate(-38.927439, -14.708633) "/>            <line x1="166" y1="27.4172651" x2="241.854879" y2="2" id="Path" transform="translate(203.927439, 14.708633) scale(-1, 1) rotate(2.524843) translate(-203.927439, -14.708633) "/>        </g>    </g>    </g><g id="notion-avatar-glasses">      <!--?xml version="1.0" encoding="UTF-8"?-->    <title>Glasses/ 1</title>    <g id="Glasses/-1" stroke="none" stroke-width="1" fill="none" fill-rule="evenodd" stroke-linecap="round" stroke-linejoin="round">        <g id="Group" transform="translate(293.311103, 479.000000)" stroke="#000000" stroke-width="16">            <circle id="Oval" cx="272.688897" cy="60" r="60"/>            <circle id="Oval" cx="416.688897" cy="60" r="60"/>            <path d="M368.688897,13 C360.688897,7.66666667 352.688897,5 344.688897,5 C336.688897,5 328.688897,7.66666667 320.688897,13" id="Path"/>            <line x1="216.688897" y1="36" x2="1" y2="79.3393577" id="Path" transform="translate(108.844448, 57.669679) rotate(1.361411) translate(-108.844448, -57.669679) "/>        </g>    </g>    </g><g id="notion-avatar-hair">      <g id="Hairstyle/ 57"><path id="Path" fill-rule="evenodd" clip-rule="evenodd" d="M487 190.996L490.414 190.995C515.198 191.026 598.9 192.55 673 241C751 292 798 423 798 561C798 699 771 758.334 721 873C721 873 764 662.714 764 639C764 568 753 507 708 461C695.022 447.734 675.35 433.069 648.985 417.006C627.277 462.471 602.282 493.802 574 511C500 556 451 526 417 561C394.333 584.334 375 610.667 359 640V611L358.079 609.218C343.026 580.406 327.333 566 311 566C286 566 232 573 232 639C232 683 258.667 709.667 312 719C325.685 746.66 341.351 769.66 359 788C371.109 800.584 232 738 214 639C196 540 201.661 471.698 232 399C262.651 325.553 297.063 277.471 358.282 237.331C402.919 208.064 449.049 190.996 487 190.996Z" fill="black" stroke="black" stroke-width="12" stroke-linecap="round" stroke-linejoin="round"/></g>    </g><g id="notion-avatar-accessories">      <!--?xml version="1.0" encoding="UTF-8"?-->    <title>Accessories/ 0</title>    <g id="Accessories/-0" stroke="none" stroke-width="1" fill="none" fill-rule="evenodd"/>    </g><g id="notion-avatar-details">      <!--?xml version="1.0" encoding="UTF-8"?-->    <title>Details/ 0</title>    <g id="Details/-0" stroke="none" stroke-width="1" fill="none" fill-rule="evenodd"/>    </g><g id="notion-avatar-beard">      <!--?xml version="1.0" encoding="UTF-8"?-->    <title>Beard/ 0</title>    <g id="Beard/-0" stroke="none" stroke-width="1" fill="none" fill-rule="evenodd"/>    </g>      </g>      </svg>
