<svg viewBox="0 0 1080 1080" fill="none" xmlns="http://www.w3.org/2000/svg">      <defs>  <filter id="filter" x="-20%" y="-20%" width="140%" height="140%" filterUnits="objectBoundingBox" primitiveUnits="userSpaceOnUse" color-interpolation-filters="linearRGB">    <feMorphology operator="dilate" radius="20 20" in="SourceAlpha" result="morphology"/>    <feFlood flood-color="#ffffff" flood-opacity="1" result="flood"/>    <feComposite in="flood" in2="morphology" operator="in" result="composite"/>    <feMerge result="merge">          <feMergeNode in="composite" result="mergeNode"/>      <feMergeNode in="SourceGraphic" result="mergeNode1"/>      </feMerge>  </filter></defs>      <g id="notion-avatar" filter="url(#filter)">        <g id="notion-avatar-face" fill="#ffffff">      <!--?xml version="1.0" encoding="UTF-8"?-->    <title>Face/ 8</title>    <g id="Face/-8" stroke="none" stroke-width="1" fill-rule="evenodd" stroke-linecap="round" stroke-linejoin="round">        <path d="M532,379 C664.54834,379 772,486.45166 772,619 C772,751.54834 724.54834,899 592,899 C492.560218,899 373.476049,816.010833 320.189513,718.584987 C317.498129,718.859681 314.765451,719 312,719 C267.81722,719 232,683.18278 232,639 C232,599.134956 261.158843,566.080325 299.312086,560.00055 C325.599297,455.979213 419.809919,379 532,379 Z M295.858895,624.545187 L304.141105,655.454813" id="Path" stroke="#000000" stroke-width="24"/>    </g>    </g><g id="notion-avatar-nose">      <!--?xml version="1.0" encoding="UTF-8"?-->    <title>Nose/ 3</title>    <g id="Nose/-3" stroke="none" stroke-width="1" fill="none" fill-rule="evenodd" stroke-linecap="round" stroke-linejoin="round">        <path d="M636.843465,595.910607 C654.994141,637.483681 663.279537,666.31686 661.699654,682.410144 C660.11977,698.503428 648.515798,703.474491 626.887739,697.323331" id="Line" stroke="#000000" stroke-width="16" transform="translate(644.388576, 647.892684) rotate(1.032339) translate(-644.388576, -647.892684) "/>    </g>    </g><g id="notion-avatar-mouth">      <!--?xml version="1.0" encoding="UTF-8"?-->    <title>Mouth/ 1</title>    <g id="Mouth/-1" stroke="none" stroke-width="1" fill="none" fill-rule="evenodd" stroke-linecap="round" stroke-linejoin="round">        <path d="M549,759 C575.12979,773.666667 603.12979,781 633,781 C662.87021,781 682.87021,773.666667 693,759" id="Path" stroke="#000000" stroke-width="16"/>    </g>    </g><g id="notion-avatar-eyes">      <!--?xml version="1.0" encoding="UTF-8"?-->    <title>Eyes/ 6</title>    <g id="Eyes/-6" stroke="none" stroke-width="1" fill="none" fill-rule="evenodd">        <g id="Group" transform="translate(518.000000, 518.575690)">            <circle id="Oval" fill="#000000" cx="48.2285714" cy="20" r="20"/>            <path d="M0,22.4243101 C16,9.09097677 32,2.42431011 48,2.42431011 C64,2.42431011 80,9.09097677 96,22.4243101" id="Path" stroke="#000000" stroke-width="12" stroke-linecap="round" stroke-linejoin="round"/>            <circle id="Oval" fill="#000000" transform="translate(193.771429, 20.000000) scale(-1, 1) translate(-193.771429, -20.000000) " cx="193.771429" cy="20" r="20"/>            <path d="M146,22.4243101 C162,9.09097677 178,2.42431011 194,2.42431011 C210,2.42431011 226,9.09097677 242,22.4243101" id="Path" stroke="#000000" stroke-width="12" stroke-linecap="round" stroke-linejoin="round" transform="translate(194.000000, 12.424310) scale(-1, 1) translate(-194.000000, -12.424310) "/>        </g>    </g>    </g><g id="notion-avatar-eyebrows">      <!--?xml version="1.0" encoding="UTF-8"?-->    <title>Eyebrows/ 0</title>    <g id="Eyebrows/-0" stroke="none" stroke-width="1" fill="none" fill-rule="evenodd" stroke-linecap="round" stroke-linejoin="round">        <g id="Group" transform="translate(525.000000, 492.000000)" stroke="#000000" stroke-width="16">            <path d="M0,16 C12.8888889,5.33333333 27.8888889,0 45,0 C62.1111111,0 77.1111111,5.33333333 90,16" id="Path"/>            <path d="M138,16 C150.888889,5.33333333 165.888889,0 183,0 C200.111111,0 215.111111,5.33333333 228,16" id="Path"/>        </g>    </g>    </g><g id="notion-avatar-glasses">      <!--?xml version="1.0" encoding="UTF-8"?-->    <title>Glasses/ 7</title>    <g id="Glasses/-7" stroke="none" stroke-width="1" fill="none" fill-rule="evenodd" stroke-linecap="round" stroke-linejoin="round">        <g id="Group" transform="translate(289.000000, 502.000000)" fill="#000000" stroke="#000000" stroke-width="4">            <path d="M339.740368,39.6303745 C323.440763,83.0959855 305.148598,104 266.642657,104 C226.661085,104 208.819095,87.634841 206.637074,34.1753215 C206.548706,32.0103005 204.003015,29.8282793 199,27.6292579 L199,6.90005646 C238.696939,1.25810378 267.426885,-0.923917428 285.189838,0.353992852 C297.612079,1.2476793 312.018598,4.36213391 328.409394,9.69735669 C333.107339,11.2265431 340.521032,12.1124607 350.650474,12.3551095 L351.336909,12.3375684 C361.115498,12.0718595 368.30038,11.1917889 372.891553,9.69735669 C389.282349,4.36213391 403.688868,1.2476793 416.11111,0.353992852 C433.874063,-0.923917428 462.604008,1.25810378 502.300947,6.90005646 L502.300947,6.90005646 L502.300947,27.6292579 C497.297933,29.8282793 494.752241,32.0103005 494.663873,34.1753215 C492.481852,87.634841 474.639862,104 434.65829,104 C396.15235,104 377.860184,83.0959855 361.56058,39.6303745 C359.378558,33.8116513 355.741856,30.9022897 350.650474,30.9022897 L350.650474,30.9022897 C345.559091,30.9022897 341.922389,33.8116513 339.740368,39.6303745 Z" id="Combined-Shape"/>            <polygon id="Path" points="199 7 4 39 0 48 199 28"/>        </g>    </g>    </g><g id="notion-avatar-hair">      <!--?xml version="1.0" encoding="UTF-8"?-->    <title>Hairstyle/ 2</title>    <g id="Hairstyle/-2" stroke="none" stroke-width="1" fill="none" fill-rule="evenodd" stroke-linecap="round" stroke-linejoin="round">        <path d="M636.531474,228.13477 C670.857169,243.665431 725.166891,296.973952 803.404132,362.491755 C816.410437,373.383557 842.942393,382.552972 883,390 C833,450 743,477.333333 613,472 C597.305444,471.356121 543.630254,458.087156 492.399654,439.221249 C490.674088,440.747431 489.403098,442.447013 488.585977,444.319039 C481.862828,459.721787 473.793564,504.295236 452,523 C430.206436,541.704764 398.15684,567.305201 392,580 C387.89544,588.463199 384.89544,616.463199 383,664 C365.62738,629.354885 351.294047,603.688218 340,587 C328.705953,570.311782 314.039287,563.645115 296,567 C252.289371,507.327044 242.173623,447.90566 265.652755,388.735849 C283.709479,343.23106 309.577414,319.996228 343.256562,319.031353 C343.002974,315.496838 343.314634,311.930931 344.17011,308.217487 C349.553099,284.851055 396,239 433,221 C470,203 527.562365,178.831697 636.531474,228.13477 Z" id="Combined-Shape" stroke="#000000" stroke-width="12" fill="#000000"/>    </g>    </g><g id="notion-avatar-accessories">      <!--?xml version="1.0" encoding="UTF-8"?-->    <title>Accessories/ 0</title>    <g id="Accessories/-0" stroke="none" stroke-width="1" fill="none" fill-rule="evenodd"/>    </g><g id="notion-avatar-details">      <!--?xml version="1.0" encoding="UTF-8"?-->    <title>Details/ 0</title>    <g id="Details/-0" stroke="none" stroke-width="1" fill="none" fill-rule="evenodd"/>    </g><g id="notion-avatar-beard">      <!--?xml version="1.0" encoding="UTF-8"?-->    <title>Beard/ 0</title>    <g id="Beard/-0" stroke="none" stroke-width="1" fill="none" fill-rule="evenodd"/>    </g>      </g>      </svg>