<svg viewBox="0 0 1080 1080" fill="none" xmlns="http://www.w3.org/2000/svg">      <defs>  <filter id="filter" x="-20%" y="-20%" width="140%" height="140%" filterUnits="objectBoundingBox" primitiveUnits="userSpaceOnUse" color-interpolation-filters="linearRGB">    <feMorphology operator="dilate" radius="20 20" in="SourceAlpha" result="morphology"/>    <feFlood flood-color="#ffffff" flood-opacity="1" result="flood"/>    <feComposite in="flood" in2="morphology" operator="in" result="composite"/>    <feMerge result="merge">          <feMergeNode in="composite" result="mergeNode"/>      <feMergeNode in="SourceGraphic" result="mergeNode1"/>      </feMerge>  </filter></defs>      <g id="notion-avatar" filter="url(#filter)">        <g id="notion-avatar-face" fill="#ffffff">      <!--?xml version="1.0" encoding="UTF-8"?-->    <title>Face/ 8</title>    <g id="Face/-8" stroke="none" stroke-width="1" fill-rule="evenodd" stroke-linecap="round" stroke-linejoin="round">        <path d="M532,379 C664.54834,379 772,486.45166 772,619 C772,751.54834 724.54834,899 592,899 C492.560218,899 373.476049,816.010833 320.189513,718.584987 C317.498129,718.859681 314.765451,719 312,719 C267.81722,719 232,683.18278 232,639 C232,599.134956 261.158843,566.080325 299.312086,560.00055 C325.599297,455.979213 419.809919,379 532,379 Z M295.858895,624.545187 L304.141105,655.454813" id="Path" stroke="#000000" stroke-width="24"/>    </g>    </g><g id="notion-avatar-nose">      <!--?xml version="1.0" encoding="UTF-8"?-->    <title>Nose/ 10</title>    <g id="Nose/-10" stroke="none" stroke-width="1" fill="none" fill-rule="evenodd" stroke-linecap="round" stroke-linejoin="round">        <path d="M631,694.380659 C660.333333,687.46022 678,677.333333 684,664 C693,644 637.033407,606.392531 660.161467,579" id="Path" stroke="#000000" stroke-width="16"/>    </g>    </g><g id="notion-avatar-mouth">      <!--?xml version="1.0" encoding="UTF-8"?-->    <title>Mouth/ 1</title>    <g id="Mouth/-1" stroke="none" stroke-width="1" fill="none" fill-rule="evenodd" stroke-linecap="round" stroke-linejoin="round">        <path d="M549,759 C575.12979,773.666667 603.12979,781 633,781 C662.87021,781 682.87021,773.666667 693,759" id="Path" stroke="#000000" stroke-width="16"/>    </g>    </g><g id="notion-avatar-eyes">      <!--?xml version="1.0" encoding="UTF-8"?-->    <title>Eyes/ 6</title>    <g id="Eyes/-6" stroke="none" stroke-width="1" fill="none" fill-rule="evenodd">        <g id="Group" transform="translate(518.000000, 518.575690)">            <circle id="Oval" fill="#000000" cx="48.2285714" cy="20" r="20"/>            <path d="M0,22.4243101 C16,9.09097677 32,2.42431011 48,2.42431011 C64,2.42431011 80,9.09097677 96,22.4243101" id="Path" stroke="#000000" stroke-width="12" stroke-linecap="round" stroke-linejoin="round"/>            <circle id="Oval" fill="#000000" transform="translate(193.771429, 20.000000) scale(-1, 1) translate(-193.771429, -20.000000) " cx="193.771429" cy="20" r="20"/>            <path d="M146,22.4243101 C162,9.09097677 178,2.42431011 194,2.42431011 C210,2.42431011 226,9.09097677 242,22.4243101" id="Path" stroke="#000000" stroke-width="12" stroke-linecap="round" stroke-linejoin="round" transform="translate(194.000000, 12.424310) scale(-1, 1) translate(-194.000000, -12.424310) "/>        </g>    </g>    </g><g id="notion-avatar-eyebrows">      <!--?xml version="1.0" encoding="UTF-8"?-->    <title>Eyebrows/ 5</title>    <g id="Eyebrows/-5" stroke="none" stroke-width="1" fill="none" fill-rule="evenodd" stroke-linecap="round" stroke-linejoin="round">        <g id="Group" transform="translate(517.000000, 471.000000)" stroke="#000000" stroke-width="24">            <line x1="1" y1="27.4172651" x2="76.8548788" y2="2" id="Path" transform="translate(38.927439, 14.708633) rotate(2.524843) translate(-38.927439, -14.708633) "/>            <line x1="166" y1="27.4172651" x2="241.854879" y2="2" id="Path" transform="translate(203.927439, 14.708633) scale(-1, 1) rotate(2.524843) translate(-203.927439, -14.708633) "/>        </g>    </g>    </g><g id="notion-avatar-glasses">      <!--?xml version="1.0" encoding="UTF-8"?-->    <title>Glasses/ 7</title>    <g id="Glasses/-7" stroke="none" stroke-width="1" fill="none" fill-rule="evenodd" stroke-linecap="round" stroke-linejoin="round">        <g id="Group" transform="translate(289.000000, 502.000000)" fill="#000000" stroke="#000000" stroke-width="4">            <path d="M339.740368,39.6303745 C323.440763,83.0959855 305.148598,104 266.642657,104 C226.661085,104 208.819095,87.634841 206.637074,34.1753215 C206.548706,32.0103005 204.003015,29.8282793 199,27.6292579 L199,6.90005646 C238.696939,1.25810378 267.426885,-0.923917428 285.189838,0.353992852 C297.612079,1.2476793 312.018598,4.36213391 328.409394,9.69735669 C333.107339,11.2265431 340.521032,12.1124607 350.650474,12.3551095 L351.336909,12.3375684 C361.115498,12.0718595 368.30038,11.1917889 372.891553,9.69735669 C389.282349,4.36213391 403.688868,1.2476793 416.11111,0.353992852 C433.874063,-0.923917428 462.604008,1.25810378 502.300947,6.90005646 L502.300947,6.90005646 L502.300947,27.6292579 C497.297933,29.8282793 494.752241,32.0103005 494.663873,34.1753215 C492.481852,87.634841 474.639862,104 434.65829,104 C396.15235,104 377.860184,83.0959855 361.56058,39.6303745 C359.378558,33.8116513 355.741856,30.9022897 350.650474,30.9022897 L350.650474,30.9022897 C345.559091,30.9022897 341.922389,33.8116513 339.740368,39.6303745 Z" id="Combined-Shape"/>            <polygon id="Path" points="199 7 4 39 0 48 199 28"/>        </g>    </g>    </g><g id="notion-avatar-hair">      <g id="Hairstyle/ 35"><path id="Path" fill-rule="evenodd" clip-rule="evenodd" d="M445 265C601.485 215.883 723 324 727 324C729.667 324 729.333 314 732 310C732 310 764 352 760 396C756 440 752.216 445.551 737 470C717.816 433.899 655.516 405.849 570.098 405.849C529.82 405.849 496.705 408.638 444 422C444 422 429.543 433.177 425 438C415.42 448.172 412.102 455.977 408 461C408 461 408.354 437.736 409.769 431.439C399.445 434.309 388.894 437.421 378.119 440.774C378.861 449.966 379.156 482.708 387 499L371 622L368.124 619.455C345.932 599.757 331.688 585.779 325.391 577.52L325 577C318.661 568.473 305.994 562.473 287 559L286.069 555.564C277.514 524.212 269.945 502.053 266.881 480.742C254.807 485.592 242.513 490.679 230 496C269.01 358.746 340.677 297.746 445 265Z" fill="black" stroke="black" stroke-width="12" stroke-linecap="round" stroke-linejoin="round"/></g>    </g><g id="notion-avatar-accessories">      <!--?xml version="1.0" encoding="UTF-8"?-->    <title>Accessories/ 0</title>    <g id="Accessories/-0" stroke="none" stroke-width="1" fill="none" fill-rule="evenodd"/>    </g><g id="notion-avatar-details">      <!--?xml version="1.0" encoding="UTF-8"?-->    <title>Details/ 0</title>    <g id="Details/-0" stroke="none" stroke-width="1" fill="none" fill-rule="evenodd"/>    </g><g id="notion-avatar-beard">      <g id="Beard/ 15"><g id="Group"><g id="Combined Shape"><path fill-rule="evenodd" clip-rule="evenodd" d="M369.784 644H359.784C359.784 644 341.471 799.286 411.784 857C482.098 914.714 569.784 925 615 925C660.216 925 690.216 905 707 887C723.784 869 756.082 808.293 743 804C740.172 803.072 729.363 801.658 713.81 800.202C710.947 812.016 705.396 824.233 697.53 835C696.321 836.654 695.156 838.263 694.023 839.826C675.301 865.663 665.637 879 621.229 879C574.135 879 564.884 878 525.238 840C514.752 829.95 507.447 819.544 502.766 809.407C500.067 811.055 497.593 812.617 495.291 814.07C475.74 826.412 468.584 830.929 441 814C406.784 793 369.784 644 369.784 644Z" fill="black"/><path d="M359.784 644V638C356.742 638 354.182 640.276 353.826 643.297L359.784 644ZM369.784 644L375.607 642.554C374.943 639.878 372.541 638 369.784 638V644ZM411.784 857L415.591 852.362H415.591L411.784 857ZM743 804L741.129 809.701L743 804ZM713.81 800.202L714.369 794.228C711.402 793.95 708.681 795.893 707.979 798.789L713.81 800.202ZM697.53 835L702.375 838.539L702.375 838.539L697.53 835ZM694.023 839.826L698.881 843.347H698.881L694.023 839.826ZM525.238 840L521.086 844.332H521.086L525.238 840ZM502.766 809.407L508.214 806.892C507.496 805.338 506.149 804.165 504.511 803.667C502.873 803.169 501.101 803.394 499.64 804.286L502.766 809.407ZM495.291 814.07L492.088 808.997L492.088 808.997L495.291 814.07ZM441 814L444.139 808.886L441 814ZM359.784 650H369.784V638H359.784V650ZM415.591 852.362C382.46 825.168 369.587 774.171 365.392 728.311C363.317 705.625 363.406 684.684 364.017 669.405C364.322 661.772 364.757 655.567 365.114 651.284C365.292 649.142 365.451 647.482 365.565 646.364C365.622 645.806 365.667 645.383 365.698 645.103C365.713 644.963 365.725 644.859 365.733 644.792C365.736 644.759 365.739 644.735 365.741 644.72C365.742 644.712 365.742 644.707 365.743 644.704C365.743 644.703 365.743 644.702 365.743 644.702C365.743 644.702 365.743 644.703 359.784 644C353.826 643.297 353.825 643.299 353.825 643.302C353.825 643.304 353.824 643.307 353.824 643.31C353.823 643.317 353.822 643.326 353.821 643.337C353.818 643.36 353.815 643.392 353.81 643.433C353.8 643.516 353.787 643.636 353.77 643.791C353.736 644.103 353.687 644.559 353.626 645.152C353.506 646.337 353.34 648.069 353.155 650.287C352.786 654.721 352.339 661.099 352.026 668.925C351.401 684.566 351.306 706.054 353.442 729.404C357.668 775.614 370.795 831.118 407.977 861.638L415.591 852.362ZM615 919C570.41 919 484.361 908.81 415.591 852.362L407.977 861.638C479.834 920.619 569.159 931 615 931V919ZM702.612 882.908C686.755 899.914 658.27 919 615 919V931C662.162 931 693.677 910.086 711.388 891.092L702.612 882.908ZM741.129 809.701C739.838 809.277 739.837 808.156 739.972 809.006C740.132 810.007 740.062 811.932 739.395 814.956C738.09 820.872 734.981 828.945 730.781 837.784C722.358 855.506 710.4 874.556 702.612 882.908L711.388 891.092C720.385 881.444 732.967 861.14 741.619 842.935C745.955 833.811 749.517 824.777 751.113 817.541C751.897 813.989 752.335 810.326 751.822 807.115C751.286 803.754 749.433 799.796 744.871 798.299L741.129 809.701ZM713.251 806.176C720.985 806.9 727.498 807.61 732.402 808.249C737.561 808.921 740.36 809.448 741.129 809.701L744.871 798.299C742.813 797.624 738.793 796.98 733.952 796.349C728.856 795.685 722.188 794.96 714.369 794.228L713.251 806.176ZM702.375 838.539C710.705 827.138 716.592 814.199 719.641 801.615L707.979 798.789C705.303 809.834 700.088 821.328 692.685 831.461L702.375 838.539ZM698.881 843.347C700.015 841.783 701.174 840.183 702.375 838.539L692.685 831.461C691.469 833.126 690.296 834.744 689.164 836.306L698.881 843.347ZM621.229 885C643.975 885 658.806 881.598 670.481 874.163C681.936 866.868 689.689 856.033 698.881 843.347L689.164 836.306C679.635 849.456 673.195 858.208 664.035 864.041C655.096 869.734 642.892 873 621.229 873V885ZM521.086 844.332C540.889 863.312 553.891 873.878 568.309 879.358C582.687 884.823 597.95 885 621.229 885V873C597.414 873 584.505 872.677 572.572 868.141C560.68 863.621 549.233 854.688 529.39 835.668L521.086 844.332ZM497.319 811.923C502.343 822.802 510.11 833.812 521.086 844.332L529.39 835.668C519.394 826.088 512.551 816.286 508.214 806.892L497.319 811.923ZM498.494 819.144C500.799 817.689 503.237 816.15 505.893 814.529L499.64 804.286C496.897 805.961 494.387 807.545 492.088 808.997L498.494 819.144ZM437.861 819.114C451.808 827.673 461.898 831.698 471.591 830.996C481.08 830.309 489.124 825.059 498.494 819.144L492.088 808.997C481.907 815.424 476.597 818.603 470.725 819.028C465.056 819.438 457.776 817.256 444.139 808.886L437.861 819.114ZM369.784 644C363.961 645.446 363.961 645.447 363.962 645.449C363.962 645.45 363.963 645.452 363.963 645.455C363.965 645.46 363.966 645.468 363.969 645.477C363.974 645.497 363.981 645.525 363.99 645.563C364.009 645.637 364.036 645.747 364.073 645.891C364.145 646.18 364.253 646.605 364.394 647.16C364.676 648.269 365.094 649.893 365.637 651.965C366.723 656.108 368.31 662.042 370.322 669.227C374.344 683.59 380.07 702.981 386.879 723.053C393.678 743.094 401.606 763.961 410.048 781.215C414.269 789.841 418.678 797.687 423.211 804.122C427.686 810.473 432.567 815.864 437.861 819.114L444.139 808.886C440.879 806.886 437.119 803.027 433.021 797.21C428.982 791.477 424.887 784.238 420.827 775.941C412.709 759.351 404.971 739.031 398.243 719.197C391.525 699.394 385.863 680.223 381.878 665.992C379.886 658.879 378.316 653.01 377.245 648.922C376.709 646.879 376.299 645.281 376.022 644.197C375.884 643.655 375.78 643.242 375.71 642.965C375.675 642.827 375.649 642.722 375.632 642.654C375.624 642.619 375.617 642.594 375.613 642.577C375.611 642.569 375.609 642.563 375.609 642.559C375.608 642.557 375.608 642.556 375.608 642.555C375.607 642.554 375.607 642.554 369.784 644Z" fill="black"/></g><path id="Path" fill-rule="evenodd" clip-rule="evenodd" d="M698.059 729.721C698.059 729.721 701.033 737.719 699.086 738.906C697.74 739.726 669 722.832 616 723C563 723.168 534.188 739.683 532.914 738.906C530.905 737.681 533 732 534.94 729.721C541.033 724.945 571.31 714.711 602.246 712.449C606.205 712.16 610 716.002 616 716.001C622 716 626.18 712.101 629.327 712.287C661.138 714.165 691.805 724.818 698.059 729.721Z" fill="black" stroke="black" stroke-width="12" stroke-linecap="round" stroke-linejoin="round"/><path id="Path_2" fill-rule="evenodd" clip-rule="evenodd" d="M591 867C591 867 604.444 870 616 870C627.556 870 639 867 639 867L648 890H583L591 867Z" fill="black" stroke="black" stroke-width="12" stroke-linecap="round" stroke-linejoin="round"/></g></g>    </g>      </g>      </svg>